<?xml version="1.0" encoding="utf-8"?>
<!-- Generator: Adobe Illustrator 24.0.1, SVG Export Plug-In . SVG Version: 6.00 Build 0)  -->
<svg version="1.1" id="Ebene_1" xmlns="http://www.w3.org/2000/svg" xmlns:xlink="http://www.w3.org/1999/xlink" x="0px" y="0px"
	 viewBox="0 0 511 511" style="enable-background:new 0 0 511 511;" xml:space="preserve">
<style type="text/css">
	.st0{fill:#898890;}
	.st1{fill:#88B279;}
</style>
<path class="st0" d="M86.8,268.5v151.7c0,44.1,76,79.8,169.7,79.8s169.7-35.7,169.7-79.8c0-16,0-135.9,0-151.7H86.8z"/>
<path class="st1" d="M426.1,268.5c0,44.1-76,79.8-169.7,79.8S86.8,312.6,86.8,268.5s76-79.8,169.7-79.8S426.1,224.4,426.1,268.5z"/>
<path d="M246.5,128.8c0,5.5,4.5,10,10,10s10-4.5,10-10c0-5.5-4.5-10-10-10S246.5,123.3,246.5,128.8z"/>
<path d="M256.5,414.2c-5.5,0-10,4.5-10,10s4.5,10,10,10s10-4.5,10-10S262,414.2,256.5,414.2z"/>
<path d="M380.7,203c-33.3-15.7-77.5-24.3-124.2-24.3s-90.9,8.6-124.2,24.3c-35.7,16.8-55.4,40.1-55.4,65.5v151.7
	c0,25.4,19.7,48.7,55.4,65.5c33.3,15.7,77.5,24.3,124.2,24.3s90.9-8.6,124.2-24.3c35.7-16.8,55.4-40.1,55.4-65.5V268.5
	C436.1,243.1,416.4,219.8,380.7,203z M140.8,221.1c30.7-14.5,71.8-22.4,115.7-22.4s85,8,115.7,22.4c27.9,13.1,44,30.4,44,47.4
	s-16,34.3-44,47.4c-30.7,14.5-71.8,22.4-115.7,22.4s-85-8-115.7-22.4c-27.9-13.1-44-30.4-44-47.4S112.8,234.2,140.8,221.1z
	 M416.2,420.2c0,17-16,34.3-44,47.4c-30.7,14.5-71.8,22.4-115.7,22.4s-85-8-115.7-22.4c-27.9-13.2-44-30.4-44-47.4v-38.3
	c5.9,6.2,13.1,12.1,21.5,17.6c25.5,16.7,60,28.2,97.2,32.4c0.4,0,0.8,0.1,1.1,0.1c5,0,9.3-3.8,9.9-8.9c0.6-5.5-3.3-10.4-8.8-11
	c-74.7-8.5-120.9-44.8-120.9-73.7v-27.9c9,8.7,20.9,16.6,35.5,23.5c33.3,15.7,77.5,24.3,124.2,24.3c46.8,0,90.9-8.6,124.2-24.3
	c14.6-6.9,26.5-14.8,35.5-23.5v27.9c0,28.9-46.2,65.2-120.9,73.7c-5.5,0.6-9.4,5.6-8.8,11c0.6,5.1,4.9,8.9,9.9,8.9
	c0.4,0,0.8,0,1.1-0.1c37.1-4.2,71.6-15.7,97.2-32.4c8.4-5.5,15.6-11.4,21.5-17.6L416.2,420.2L416.2,420.2z"/>
<path d="M256.5,318.4c5.5,0,10-4.5,10-10v-79.8c0-5.5-4.5-10-10-10s-10,4.5-10,10v79.8C246.5,313.9,251,318.4,256.5,318.4z"/>
<path d="M306.4,298.4c5.5,0,10-4.5,10-10v-39.9c0-5.5-4.5-10-10-10s-10,4.5-10,10v39.9C296.4,294,300.9,298.4,306.4,298.4z"/>
<path d="M206.6,298.4c5.5,0,10-4.5,10-10v-39.9c0-5.5-4.5-10-10-10s-10,4.5-10,10v39.9C196.6,294,201.1,298.4,206.6,298.4z"/>
<path d="M293.8,102c2.8-4.7,1.3-10.9-3.4-13.7c-20.9-12.5-46.8-12.5-67.7,0c-4.7,2.8-6.3,9-3.4,13.7c2.8,4.7,9,6.3,13.7,3.4
	c14.5-8.7,32.6-8.7,47.2,0C284.8,108.2,290.9,106.7,293.8,102z"/>
<path d="M333,44.6c4.6,3.1,10.8,1.8,13.8-2.8c3.1-4.6,1.8-10.8-2.8-13.8l-6.7-4.5c-49.1-32.8-112.6-32.8-161.7,0l-6.7,4.5
	c-4.6,3.1-5.8,9.2-2.8,13.8c3,4.6,9.2,5.8,13.8,2.8l6.7-4.5c42.4-28.3,97.1-28.3,139.5,0L333,44.6z"/>
<path d="M306.3,74.9c4.6,3.1,10.8,1.8,13.8-2.8c3.1-4.6,1.8-10.8-2.8-13.8l-2.2-1.5c-35.7-23.8-81.7-23.8-117.4,0l-2.2,1.5
	c-4.6,3.1-5.8,9.3-2.8,13.8c3.1,4.6,9.3,5.8,13.8,2.8l2.2-1.5c28.9-19.3,66.3-19.3,95.2,0L306.3,74.9z"/>
</svg>
