<svg height="512" viewBox="0 0 64 64" width="512" xmlns="http://www.w3.org/2000/svg"><g id="brain-laptop-document-education-online_education" data-name="brain-laptop-document-education-online education"><path d="m13 29v24h38v-24a4 4 0 0 0 -4-4h-30a4 4 0 0 0 -4 4z" fill="#c6c5ca"/><path d="m51 29v24h-4v-24a4 4 0 0 0 -4-4h4a4 4 0 0 1 4 4z" fill="#acabb1"/><path d="m47 30v23h-30v-23a1 1 0 0 1 1-1h28a1 1 0 0 1 1 1z" fill="#46f8ff"/><path d="m46 29h-4a1 1 0 0 1 1 1v23h4v-23a1 1 0 0 0 -1-1z" fill="#00e7f0"/><path d="m54 53v4a4 4 0 0 1 -4 4h-36a4 4 0 0 1 -4-4v-4z" fill="#898890"/><path d="m54 53v4a4 4 0 0 1 -4 4h-4a4 4 0 0 0 4-4v-4z" fill="#787680"/><path d="m50.6 15.15a5.924 5.924 0 0 1 1.4 3.85 6 6 0 0 1 -6 6 6 6 0 0 1 -12 0v-16a6 6 0 0 1 11.67-1.96 6 6 0 0 1 5.33 5.96 5.909 5.909 0 0 1 -.4 2.15z" fill="#ffeb99"/><path d="m52 19a6 6 0 0 1 -6 6 6.022 6.022 0 0 1 -6 6 5.761 5.761 0 0 1 -2-.35 5.857 5.857 0 0 0 2.46-1.65 5.931 5.931 0 0 0 1.54-4 6 6 0 0 0 6-6 5.924 5.924 0 0 0 -1.4-3.85 5.909 5.909 0 0 0 .4-2.15 6 6 0 0 0 -5.33-5.96 5.973 5.973 0 0 0 -3.67-3.69 5.8 5.8 0 0 1 2-.35 6 6 0 0 1 5.67 4.04 6 6 0 0 1 5.33 5.96 5.909 5.909 0 0 1 -.4 2.15 5.924 5.924 0 0 1 1.4 3.85z" fill="#ffde55"/><path d="m26 40.2-4-1.2 10-3 10 3-4 1.2-6 1.8z" fill="#ff3051"/><path d="m39 53v2a2.006 2.006 0 0 1 -2 2h-10a2.006 2.006 0 0 1 -2-2v-2z" fill="#c6c5ca"/><path d="m39 53v2a2.006 2.006 0 0 1 -2 2h-4a2.006 2.006 0 0 0 2-2v-2z" fill="#acabb1"/><path d="m38 40.2v5.8h-12v-5.8l6 1.8z" fill="#d43237"/><path d="m13.4 15.15a5.909 5.909 0 0 1 -.4-2.15 6 6 0 0 1 5.33-5.96 6 6 0 0 1 11.67 1.96v16a6 6 0 0 1 -12 0 6 6 0 0 1 -6-6 5.924 5.924 0 0 1 1.4-3.85z" fill="#ffeb99"/><path d="m42 39-3.17.95-9.46-3.16 2.63-.79z" fill="#cd2a00"/><path d="m38 40.2v5.8h-4v-4.6z" fill="#ab2300"/><path d="m54 52h-2v-23a5 5 0 0 0 -2.193-4.134 6.937 6.937 0 0 0 1.9-9.873 6.988 6.988 0 0 0 -5.325-8.855 7 7 0 0 0 -13.382 2.862v15h-2v-15a7 7 0 0 0 -13.382-2.862 6.988 6.988 0 0 0 -5.325 8.855 6.937 6.937 0 0 0 1.9 9.873 5 5 0 0 0 -2.193 4.134v23h-2a1 1 0 0 0 -1 1v4a5.006 5.006 0 0 0 5 5h36a5.006 5.006 0 0 0 5-5v-4a1 1 0 0 0 -1-1zm-4 0h-2v-22a2 2 0 0 0 -1.7-1.97 6.9 6.9 0 0 0 .62-2.03h.08a3 3 0 0 1 3 3zm-24 2h12v1a1 1 0 0 1 -1 1h-10a1 1 0 0 1 -1-1zm-8-2v-22h1.111a6.976 6.976 0 0 0 9.778 0h6.222a6.976 6.976 0 0 0 9.778 0h1.111v22zm15.685-24h-3.37a6.937 6.937 0 0 0 .605-2h2.16a6.937 6.937 0 0 0 .605 2zm1.315-19a4.988 4.988 0 0 1 9.036-2.926 7.007 7.007 0 0 0 -6.036 6.926h2a5 5 0 0 1 4.9-4.99 5 5 0 0 1 -4.9 5.99v2a7.009 7.009 0 0 0 7-7c0-.2-.013-.4-.03-.592a5 5 0 0 1 -1.97 9.592v2a6.989 6.989 0 0 0 5.634-2.863 5 5 0 1 1 -9.634 1.863h-2a7.006 7.006 0 0 0 5.908 6.906 4.995 4.995 0 0 1 -9.908-.906zm-22 10a4.972 4.972 0 0 1 .366-1.863 6.989 6.989 0 0 0 5.634 2.863v-2a5 5 0 0 1 -1.97-9.592c-.017.192-.03.392-.03.592a7.009 7.009 0 0 0 7 7v-2a5 5 0 0 1 -4.9-5.99 5 5 0 0 1 4.9 4.99h2a7.007 7.007 0 0 0 -6.036-6.926 4.988 4.988 0 0 1 9.036 2.926v16a4.995 4.995 0 0 1 -9.908.906 7.006 7.006 0 0 0 5.908-6.906h-2a5 5 0 0 1 -10 0zm1 10a3 3 0 0 1 3-3h.08a6.9 6.9 0 0 0 .62 2.03 2 2 0 0 0 -1.7 1.97v22h-2zm39 28a3 3 0 0 1 -3 3h-36a3 3 0 0 1 -3-3v-3h13v1a3 3 0 0 0 3 3h10a3 3 0 0 0 3-3v-1h13z"/><path d="m42.287 38.042-10-3a.985.985 0 0 0 -.574 0l-10 3a1 1 0 0 0 0 1.916l3.287.986v5.056a1 1 0 0 0 1 1h12a1 1 0 0 0 1-1v-5.056l2-.6v3.656h2v-5a1 1 0 0 0 -.713-.958zm-10.287-.998 6.52 1.956-6.52 1.956-6.52-1.956zm5 7.956h-10v-3.456l4.713 1.414a1 1 0 0 0 .574 0l4.713-1.414z"/><path d="m9 46h-5v-42h5v-2h-6a1 1 0 0 0 -1 1v44a1 1 0 0 0 1 1h6z"/><path d="m61 2h-6v2h5v42h-5v2h6a1 1 0 0 0 1-1v-44a1 1 0 0 0 -1-1z"/><path d="m6 6h4v2h-4z"/><path d="m6 12h4v2h-4z"/><path d="m6 18h4v2h-4z"/><path d="m6 24h4v2h-4z"/><path d="m6 30h4v2h-4z"/><path d="m6 36h4v2h-4z"/><path d="m6 42h4v2h-4z"/><path d="m54 6h4v2h-4z"/><path d="m54 12h4v2h-4z"/><path d="m54 18h4v2h-4z"/><path d="m54 24h4v2h-4z"/><path d="m54 30h4v2h-4z"/><path d="m54 36h4v2h-4z"/><path d="m54 42h4v2h-4z"/></g></svg>