<?xml version="1.0" encoding="utf-8"?>
<!-- Generator: Adobe Illustrator 24.0.1, SVG Export Plug-In . SVG Version: 6.00 Build 0)  -->
<svg version="1.1" id="Ebene_1" xmlns="http://www.w3.org/2000/svg" xmlns:xlink="http://www.w3.org/1999/xlink" x="0px" y="0px"
	 viewBox="0 0 512 512" style="enable-background:new 0 0 512 512;" xml:space="preserve">
<style type="text/css">
	.st0{fill:#C6C5CA;}
	.st1{fill:#ACABB1;}
	.st2{fill:#88B279;}
	.st3{fill:#7CA36C;}
	.st4{fill:#898890;}
	.st5{fill:#787680;}
	.st6{fill:#EFC48F;}
	.st7{fill:#F7BD57;}
	.st8{fill:#E34E4B;}
	.st9{fill:#D43237;}
	.st10{fill:#CD2A00;}
	.st11{fill:#AB2300;}
</style>
<g id="brain-laptop-document-education-online_education">
	<path class="st0" d="M104,232v192h304V232c0-17.7-14.3-32-32-32H136C118.3,200,104,214.3,104,232z"/>
	<path class="st1" d="M408,232v192h-32V232c0-17.7-14.3-32-32-32h32C393.7,200,408,214.3,408,232z"/>
	<path class="st2" d="M376,240v184H136V240c0-4.4,3.6-8,8-8h224C372.4,232,376,235.6,376,240z"/>
	<path class="st3" d="M368,232h-32c4.4,0,8,3.6,8,8v184h32V240C376,235.6,372.4,232,368,232z"/>
	<path class="st4" d="M432,424v32c0,17.7-14.3,32-32,32H112c-17.7,0-32-14.3-32-32v-32H432z"/>
	<path class="st5" d="M432,424v32c0,17.7-14.3,32-32,32h-32c17.7,0,32-14.3,32-32v-32H432z"/>
	<path class="st6" d="M404.8,121.2c7.3,8.6,11.2,19.5,11.2,30.8c0,26.5-21.5,48-48,48c0,26.5-21.5,48-48,48s-48-21.5-48-48V72
		c0-26.5,21.5-48,48-48c20.5,0,38.7,13,45.3,32.3C389.6,59,408,79.6,408,104C408,109.9,406.9,115.7,404.8,121.2z"/>
	<path class="st7" d="M416,152c0,26.5-21.5,48-48,48c-0.1,26.5-21.5,47.9-48,48c-5.5,0-10.9-0.9-16-2.8c7.6-2.6,14.4-7.2,19.7-13.2
		c8-8.8,12.3-20.2,12.3-32c26.5,0,48-21.5,48-48c0-11.3-3.9-22.2-11.2-30.8c2.1-5.5,3.2-11.3,3.2-17.2c0-24.4-18.4-45-42.6-47.7
		c-4.8-13.8-15.6-24.7-29.4-29.5c5.1-1.9,10.5-2.8,16-2.8c20.5,0,38.7,13,45.4,32.3C389.6,59,408,79.6,408,104
		c0,5.9-1.1,11.7-3.2,17.2C412.1,129.8,416,140.7,416,152z"/>
	<path class="st8" d="M208,321.6l-32-9.6l80-24l80,24l-32,9.6L256,336L208,321.6z"/>
	<path class="st0" d="M312,424v16c0,8.8-7.2,16-16,16h-80c-8.8,0-16-7.2-16-16v-16H312z"/>
	<path class="st1" d="M312,424v16c0,8.8-7.2,16-16,16h-32c8.8,0,16-7.2,16-16v-16H312z"/>
	<path class="st9" d="M304,321.6V368h-96v-46.4l48,14.4L304,321.6z"/>
	<path class="st6" d="M107.2,121.2c-2.1-5.5-3.2-11.3-3.2-17.2c0-24.4,18.4-45,42.6-47.7c8.7-25.1,36-38.3,61.1-29.7
		C227,33.3,240,51.5,240,72v128c0,26.5-21.5,48-48,48s-48-21.5-48-48c-26.5,0-48-21.5-48-48C96,140.7,99.9,129.8,107.2,121.2z"/>
	<path class="st10" d="M336,312l-25.4,7.6L235,294.3l21-6.3L336,312z"/>
	<path class="st11" d="M304,321.6V368h-32v-36.8L304,321.6z"/>
	<path d="M432,416h-16V232c0-13.2-6.6-25.6-17.5-33.1c25.8-16.5,33.3-50.9,16.8-76.7c-0.5-0.8-1-1.6-1.6-2.3
		c8.8-29.6-8-60.7-37.5-69.6c-1.7-0.5-3.4-0.9-5.1-1.3C358.4,20.9,325.2,8.3,297,21.1c-20,9-33,29-33,50.9v120h-16V72
		c-0.1-30.9-25.2-56-56.1-55.9c-22,0-41.9,12.9-50.9,33c-30.3,6.1-49.9,35.5-43.9,65.8c0.3,1.7,0.8,3.4,1.3,5.1
		c-17.8,24.9-12,59.6,12.9,77.4c0.8,0.5,1.5,1.1,2.3,1.6c-11,7.4-17.5,19.8-17.5,33.1v184H80c-4.4,0-8,3.6-8,8v32
		c0,22.1,17.9,40,40,40h288c22.1,0,40-17.9,40-40v-32C440,419.6,436.4,416,432,416z M400,416h-16V240c0-7.9-5.8-14.6-13.6-15.8
		c2.5-5.1,4.2-10.6,5-16.2h0.6c13.3,0,24,10.7,24,24V416z M208,432h96v8c0,4.4-3.6,8-8,8h-80c-4.4,0-8-3.6-8-8V432z M144,416V240
		h8.9c21.7,21.3,56.5,21.3,78.2,0h49.8c21.7,21.3,56.5,21.3,78.2,0h8.9v176H144z M269.5,224h-27c2.4-5.1,4-10.5,4.8-16h17.3
		C265.4,213.5,267.1,218.9,269.5,224z M280,72c-0.1-22,17.8-39.9,39.8-40c12.9,0,25,6.1,32.5,16.6c-27.6,3.9-48.2,27.5-48.3,55.4h16
		c0-21.8,17.5-39.5,39.2-39.9c4.4,21.7-9.6,42.8-31.3,47.1c-2.6,0.5-5.3,0.8-7.9,0.8v16c30.9,0,56-25.1,56-56c0-1.6-0.1-3.2-0.2-4.7
		c20.3,8.7,29.7,32.3,20.9,52.6c-6.3,14.6-20.7,24.1-36.7,24.2v16c17.8,0,34.6-8.5,45.1-22.9c8.3,20.5-1.6,43.8-22.1,52.1
		c-20.5,8.3-43.8-1.6-52.1-22.1c-1.9-4.8-2.9-10-2.9-15.1h-16c0.1,27.5,20.1,50.9,47.3,55.2c-4,21.7-24.8,36.1-46.5,32.1
		c-19-3.5-32.8-20-32.7-39.3V72z M104,152c0-5.1,1-10.2,2.9-14.9c10.5,14.4,27.3,22.9,45.1,22.9v-16c-22.1,0-40-18-39.9-40.1
		c0-15.9,9.5-30.4,24.2-36.7c-0.1,1.5-0.2,3.1-0.2,4.7c0,30.9,25.1,56,56,56v-16c-22.1,0-40-17.9-40-40c0-2.7,0.3-5.3,0.8-7.9
		C174.5,64.5,192,82.2,192,104h16c-0.1-27.9-20.6-51.5-48.3-55.4c12.9-17.9,37.8-21.9,55.7-9.1C225.9,47,232,59.1,232,72v128
		c0,22.1-17.9,40-39.9,40c-19.3,0-35.9-13.8-39.3-32.7c27.2-4.3,47.2-27.7,47.3-55.2h-16c0,22.1-17.9,40-40,40S104,174.1,104,152z
		 M112,232c0-13.3,10.7-24,24-24h0.6c0.8,5.6,2.5,11.1,5,16.2c-7.8,1.2-13.6,7.9-13.6,15.8v176h-16V232z M424,456
		c0,13.3-10.7,24-24,24H112c-13.3,0-24-10.7-24-24v-24h104v8c0,13.3,10.7,24,24,24l0,0h80c13.3,0,24-10.7,24-24l0,0v-8h104V456z"/>
	<path d="M338.3,304.3l-80-24c-1.5-0.5-3.1-0.5-4.6,0l-80,24c-4.2,1.3-6.6,5.7-5.4,10c0.8,2.6,2.8,4.6,5.4,5.4l26.3,7.9V368
		c0,4.4,3.6,8,8,8h96c4.4,0,8-3.6,8-8v-40.4l16-4.8V352h16v-40C344,308.5,341.7,305.4,338.3,304.3z M256,296.4l52.2,15.6L256,327.6
		L203.8,312L256,296.4z M296,360h-80v-27.6l37.7,11.3c1.5,0.4,3.1,0.4,4.6,0l37.7-11.3V360z"/>
</g>
</svg>
