<?xml version="1.0" encoding="utf-8"?>
<!-- Generator: Adobe Illustrator 24.0.1, SVG Export Plug-In . SVG Version: 6.00 Build 0)  -->
<svg version="1.1" id="Layer_1_1_" xmlns="http://www.w3.org/2000/svg" xmlns:xlink="http://www.w3.org/1999/xlink" x="0px" y="0px"
	 viewBox="0 0 512 512" style="enable-background:new 0 0 512 512;" xml:space="preserve">
<style type="text/css">
	.st0{fill:#E34E4B;}
	.st1{fill:#F4C07A;}
	.st2{fill:#6599ED;}
	.st3{fill:#8BB8C1;}
	.st4{fill:#1A1A1A;}
</style>
<path class="st0" d="M256,424v64L64,432v-64L256,424z"/>
<path class="st0" d="M448,368v64l-192,56v-64L448,368z"/>
<path class="st1" d="M256,312l192,56l-192,56L64,368L256,312z"/>
<path class="st2" d="M488,72h-48V24L488,72z"/>
<path class="st2" d="M320,72h-48V24L320,72z"/>
<path class="st2" d="M152,72h-48V24L152,72z"/>
<path class="st3" d="M360,200V24h80v48h48v128H360z"/>
<path class="st3" d="M192,200V24h80v48h48v128H192z"/>
<path class="st3" d="M24,200V24h80v48h48v128H24z"/>
<g>
	<path class="st4" d="M216,96h80v16h-80V96z"/>
	<path class="st4" d="M216,128h80v16h-80V128z"/>
	<path class="st4" d="M456,432v-64c0-3.6-2.3-6.7-5.8-7.7L264,306v-98h56c4.4,0,8-3.6,8-8V72c0-2.1-0.8-4.2-2.3-5.7l-48-48
		c-1.5-1.5-3.5-2.3-5.7-2.3h-80c-4.4,0-8,3.6-8,8v176c0,4.4,3.6,8,8,8h56v98L61.8,360.3c-3.4,1-5.8,4.1-5.8,7.7v64
		c0,3.6,2.3,6.7,5.8,7.7l192,56c0.7,0.2,1.5,0.3,2.2,0.3s1.5-0.1,2.2-0.3l192-56C453.7,438.7,456,435.6,456,432z M280,43.3L300.7,64
		H280V43.3z M200,32h64v40c0,4.4,3.6,8,8,8h40v112H200V32z M248,322.7v42l-18.3-18.3l-11.3,11.3l32,32c1.6,1.6,3.6,2.3,5.7,2.3
		c2,0,4.1-0.8,5.7-2.3l32-32l-11.3-11.3L264,364.7v-42L419.4,368L256,415.7L92.6,368L248,322.7z M72,378.7L248,430v47.3L72,426
		V378.7z M264,477.3V430l176-51.3V426L264,477.3z"/>
	<path class="st4" d="M216,64h32v16h-32V64z"/>
	<path class="st4" d="M24,208h56c0,22.1,17.9,40,40,40h24c13.2,0,24,10.8,24,24v12.7l-18.3-18.3l-11.3,11.3l32,32
		c1.6,1.6,3.6,2.3,5.7,2.3s4.1-0.8,5.7-2.3l32-32l-11.3-11.3L184,284.7V272c0-22.1-17.9-40-40-40h-24c-13.2,0-24-10.8-24-24h56
		c4.4,0,8-3.6,8-8V72c0-2.1-0.8-4.2-2.3-5.7l-48-48c-1.5-1.5-3.5-2.3-5.7-2.3H24c-4.4,0-8,3.6-8,8v176C16,204.4,19.6,208,24,208
		L24,208z M112,43.3L132.7,64H112V43.3z M32,32h64v40c0,4.4,3.6,8,8,8h40v112H32V32z"/>
	<path class="st4" d="M48,96h80v16H48V96z"/>
	<path class="st4" d="M48,128h80v16H48V128z"/>
	<path class="st4" d="M48,160h80v16H48V160z"/>
	<path class="st4" d="M48,64h32v16H48V64z"/>
	<path class="st4" d="M496,200V72c0-2.1-0.8-4.2-2.3-5.7l-48-48c-1.5-1.5-3.5-2.3-5.7-2.3h-80c-4.4,0-8,3.6-8,8v176c0,4.4,3.6,8,8,8
		h56c0,13.2-10.8,24-24,24h-24c-22.1,0-40,17.9-40,40v12.7l-18.3-18.3l-11.3,11.3l32,32c1.6,1.6,3.6,2.3,5.7,2.3s4.1-0.8,5.7-2.3
		l32-32l-11.3-11.3L344,284.7V272c0-13.2,10.8-24,24-24h24c22.1,0,40-17.9,40-40h56C492.4,208,496,204.4,496,200z M448,43.3
		L468.7,64H448V43.3z M368,192V32h64v40c0,4.4,3.6,8,8,8h40v112H368z"/>
	<path class="st4" d="M384,96h80v16h-80V96z"/>
	<path class="st4" d="M384,128h80v16h-80V128z"/>
	<path class="st4" d="M384,160h80v16h-80V160z"/>
	<path class="st4" d="M384,64h32v16h-32V64z"/>
	<path class="st4" d="M216,160h16v16h-16V160z"/>
	<path class="st4" d="M248,160h16v16h-16V160z"/>
	<path class="st4" d="M280,160h16v16h-16V160z"/>
</g>
</svg>
