<?xml version="1.0" encoding="utf-8"?>
<!-- Generator: Adobe Illustrator 24.0.1, SVG Export Plug-In . SVG Version: 6.00 Build 0)  -->
<svg version="1.1" id="Ebene_1" xmlns:odm="http://product.corel.com/CGS/11/cddns/"
	 xmlns="http://www.w3.org/2000/svg" xmlns:xlink="http://www.w3.org/1999/xlink" x="0px" y="0px" viewBox="0 0 800 373"
	 style="enable-background:new 0 0 800 373;" xml:space="preserve">
<style type="text/css">
	.st0{fill-rule:evenodd;clip-rule:evenodd;fill:#FFFFFF;stroke:#0F1012;stroke-miterlimit:10;}
	.st1{fill-rule:evenodd;clip-rule:evenodd;fill:#FFFFFF;}
</style>
<g id="Ebene_1_1_">
	<path class="st0" d="M293.3,206.4H176.6V92.8h116.7V206.4z"/>
	<g>
		<rect x="50.9" y="92.8" class="st0" width="116.7" height="113.7"/>
		<path class="st0" d="M176.6,92.8l59.8-59.8v113.7l-59.8,59.8V92.8z"/>
	</g>
	<path class="st1" d="M339.2,259.3v-28.9h10c4,0,7,1,9,4c3,3,4,6,4,10s-1,8-4,11c-2,2-5,4-8,4H339.2z M343.2,256.3h6c3,0,5-1,7-3
		c1-3,2-5,2-9c0-3-1-5-2-8c-2-2-4-3-7-3h-6V256.3z M383,259.3h-3v-4c-1,3-3,4-6,4s-4,0-5-2c-2-1-2-3-2-6v-14h3v14c0,2,0,4,1,4
		c1,1,2,2,3,2s2-1,3-1c1-1,2-2,2-3c1-1,1-2,1-4v-12h3V259.3z M406,259.3h-3c0-1,0-2,0-4c-2,3-4,4-8,4c-2,0-4,0-5-2c-1-1-2-2-2-4
		s1-4,3-5c1-2,5-2,9-2c0,0,1,0,3,0c0-2,0-3-1-4c0-1-1-1-1-2c-1,0-2-1-4-1c-3,0-5,2-5,4h-3c0-4,3-6,9-6c3,0,5,1,6,2c1,1,2,3,2,7v9
		C406,256.3,406,258.3,406,259.3z M403,248.3c-2,0-3,0-3,0c-3,0-5,0-6,1c-2,1-3,2-3,4c0,1,1,2,2,3c0,0,1,1,3,1c2,0,4-1,5-2
		c1-2,2-4,2-5C403,249.3,403,249.3,403,248.3z M416,259.3h-4v-28.9h4V259.3z M435.9,252.3l3,1c-1,2-2,3-3,5c-2,1-4,1-6,1
		c-3,0-5-1-7-3c-2-2-3-4-3-8c0-3,1-6,3-8s4-3,7-3c3,0,5,1,7,3c1,2,2,5,2,8h-15c0,4,1,6,2,7s3,2,4,2
		C432.9,257.3,434.9,255.3,435.9,252.3z M435.9,246.3c0-1,0-2-1-3c0-1-1-2-2-3c0,0-1-1-3-1c-1,0-3,1-4,2s-2,3-2,5H435.9z
		 M475.8,259.3h-4v-14h-13v14h-4v-28.9h4v12h13v-12h4V259.3z M489.8,259.3c-3,0-5-1-7-3c-2-2-2-5-2-8s1-6,2-8c2-2,4-3,7-3
		c3,0,5,1,7,3s3,5,3,8s-1,6-3,8C494.7,258.3,492.8,259.3,489.8,259.3z M489.8,257.3c2,0,3-1,4-2c1-2,2-4,2-7s-1-5-2-6c-1-2-2-2-4-2
		c-2,0-3,0-4,2c-1,1-2,3-2,6s1,5,2,7C486.8,256.3,487.8,257.3,489.8,257.3z M516.7,251.3l3,1c-1,2-2,4-3,5c-1,2-3,2-5,2
		c-3,0-5-1-7-3c-1-2-2-5-2-8s1-6,2-8c2-2,4-3,7-3c2,0,4,1,5,2c2,1,2,3,3,5l-3,1c-1-4-2-5-5-5c-2,0-3,0-4,2c-1,1-2,4-2,6c0,3,1,5,2,6
		c1,2,2,3,4,3S515.7,255.3,516.7,251.3z M540.6,259.3h-3v-13c0-2-1-3-1-4c0,0,0-1-1-2c-1,0-2,0-3,0c-1,0-3,0-4,2c-1,1-1,3-1,5v12h-4
		v-28.9h4v11c1-3,3-4,6-4c1,0,2,0,3,1c1,0,2,1,2,2c1,0,1,1,2,2c0,1,0,2,0,4V259.3z M543.6,253.3h4c0,2,2,4,6,4c2,0,3-1,4-1
		c1-1,1-2,1-3c0-2-1-3-4-3l-4-1c-2,0-3-1-4-2c-1-1-2-2-2-4c0-2,1-3,2-4c2-2,4-2,6-2c5,0,7,2,9,5l-3,1c-1-2-3-3-6-3c-1,0-2,0-3,0
		c-1,1-1,2-1,3c0,1,1,2,3,3l4,1c4,0,6,2,6,6c0,2,0,3-2,5c-2,1-4,1-6,1C548.6,259.3,545.6,257.3,543.6,253.3z M578.5,251.3l3,1
		c0,2-1,4-2,5c-2,2-4,2-6,2c-3,0-5-1-6-3c-2-2-3-5-3-8s1-6,3-8c1-2,4-3,6-3c3,0,4,1,6,2c1,1,2,3,2,5l-3,1c0-4-2-5-5-5c-1,0-3,0-4,2
		c-1,1-1,4-1,6c0,3,0,5,1,6c1,2,3,3,4,3C576.5,257.3,578.5,255.3,578.5,251.3z M602.5,259.3h-3v-13c0-2,0-3,0-4c0,0-1-1-1-2
		c-1,0-2,0-3,0c-2,0-3,0-4,2c-1,1-2,3-2,5v12h-3v-28.9h3v11c2-3,4-4,7-4c1,0,2,0,3,1c1,0,2,1,2,2c1,0,1,1,1,2c0,1,0,2,0,4V259.3z
		 M625.4,259.3h-2v-4c-2,3-4,4-7,4c-2,0-4,0-5-2c-1-1-2-3-2-6v-14h3v14c0,2,1,4,1,4c1,1,2,2,3,2s2-1,3-1c1-1,2-2,2-3c1-1,1-2,1-4
		v-12h3V259.3z M635.4,259.3h-3v-28.9h3V259.3z M656.3,252.3l3,1c-1,2-2,3-4,5c-1,1-3,1-5,1c-3,0-5-1-7-3c-2-2-3-4-3-8c0-3,1-6,3-8
		s4-3,7-3c3,0,5,1,6,3c2,2,3,5,3,8h-15c0,4,0,6,2,7c1,1,3,2,4,2C653.3,257.3,655.3,255.3,656.3,252.3z M655.3,246.3c0-1,0-2,0-3
		c0-1-1-2-2-3c-1,0-2-1-3-1c-2,0-3,1-4,2c-1,1-2,3-2,5H655.3z M339.2,308.2v-28.9h12c3,0,5,1,6,2c1,2,2,3,2,5c0,3-2,5-5,7
		c2,0,3,1,4,2c1,2,2,3,2,5c0,2-1,4-2,6c-2,1-4,2-7,2H339.2z M343.2,291.2h6c3,0,4,0,5-1c1-1,1-2,1-4c0-1,0-2-1-3c-1-1-2-1-4-1h-7
		V291.2z M343.2,305.2h7c2,0,4-1,5-2c1-1,1-2,1-3c0-1,0-2,0-3c-1-1-1-2-2-2c-1-1-2-1-4-1h-7V305.2z M381.1,308.2h-3c0-1,0-2,0-4
		c-2,3-4,4-8,4c-2,0-4,0-5-1c-1-2-2-3-2-5c0-2,1-4,3-5c2-2,5-2,9-2c1,0,1,0,3,0c0-2,0-3-1-4c0-1,0-1-1-2c-1,0-2,0-4,0c-3,0-5,1-5,3
		h-3c0-4,3-6,9-6c3,0,5,1,6,2c1,1,2,3,2,7v9C381.1,305.2,381.1,307.2,381.1,308.2z M378.1,297.2c-2,0-3,0-3,0c-3,0-5,0-6,1
		c-2,1-2,2-2,4c0,1,0,2,1,3c0,1,2,1,3,1c2,0,4-1,5-2c1-2,2-3,2-5C378.1,298.2,378.1,298.2,378.1,297.2z M404,279.3v28.9h-3v-4
		c-2,3-4,4-7,4c-2,0-4-1-6-3c-1-2-2-4-2-8c0-3,1-6,2-8c2-2,4-3,6-3c3,0,5,1,7,3v-10H404z M401,295.2c0-2-1-4-2-5c-1-1-3-1-4-1
		c-2,0-3,0-4,2c-1,1-2,3-2,6c0,3,1,5,2,6c1,2,2,3,4,3c1,0,3-1,4-2c1-2,2-3,2-5V295.2z M423.9,301.2l3,1c0,2-1,3-3,5c-2,1-3,1-6,1
		c-2,0-5-1-7-3c-1-2-2-4-2-8c0-3,1-6,3-8c1-2,4-3,6-3c3,0,5,1,7,3c2,2,3,5,3,8h-16c0,4,1,6,2,7c2,1,3,2,5,2S422.9,304.2,423.9,301.2
		z M423.9,295.2c0-1,0-2-1-3c0-1,0-2-1-3c-1,0-2-1-3-1c-2,0-3,1-5,2c-1,1-1,3-1,5H423.9z M448.9,308.2h-3v-14c0-2,0-3-1-4
		c-1-1-2-1-3-1c-2,0-3,0-4,2c-2,1-2,3-2,5v12h-3v-20.9h3v3c1-3,4-4,6-4s3,0,4,1c1,1,2,2,3,3c0,1,0,3,0,6V308.2z M461.8,296.2v2h-9
		v-2H461.8z M496.7,279.3l-7,28.9h-3l-6-22.9l-6,22.9h-4l-7-28.9h4l5,22.9l6-22.9h3l7,22.9l5-22.9H496.7z M517.7,308.2h-3v-4
		c-2,3-4,4-7,4c-2,0-4,0-5-2c-1-1-2-3-2-6v-13h4v13c0,2,0,4,1,5c1,0,2,1,3,1c1,0,2-1,3-1c0-1,1-2,2-3c0-1,1-2,1-3v-12h3V308.2z
		 M514.7,280.2c0,1,0,1-1,2h-1c-1,0-1,0-2,0c0-1,0-1,0-2v-1c1-1,1-1,2-1c0,0,1,0,1,1C514.7,279.3,514.7,280.2,514.7,280.2z
		 M507.7,280.2c0,1,0,1,0,2c-1,0-1,0-2,0h-1c-1-1-1-1-1-2c0,0,0-1,1-1c0-1,1-1,1-1c1,0,1,0,2,1V280.2z M527.7,308.2h-4v-20.9h3v4
		c1-2,2-3,3-4c1-1,2-1,3-1c1,0,1,0,2,0v3h-1c-2,0-3,1-4,2c-2,2-2,3-2,6V308.2z M548.6,306.2v2c-1,0-2,0-3,0c-4,0-6-2-6-6v-13h-3v-2
		h3v-6h3v6h5v2h-5v14c0,2,2,3,4,3C547.6,306.2,547.6,306.2,548.6,306.2z M561.6,306.2v2c-1,0-2,0-2,0c-5,0-7-2-7-6v-13h-3v-2h3l1-6
		h3v6h4v2h-4v14c0,2,1,3,3,3C560.6,306.2,561.6,306.2,561.6,306.2z M578.5,301.2l3,1c0,2-1,3-3,5c-2,1-3,1-6,1c-3,0-5-1-7-3
		c-1-2-2-4-2-8c0-3,1-6,2-8c2-2,5-3,7-3c3,0,5,1,7,3c2,2,3,5,3,8h-16c0,4,1,6,2,7c2,1,3,2,5,2C575.5,306.2,577.5,304.2,578.5,301.2z
		 M578.5,295.2c0-1,0-2-1-3c0-1-1-2-1-3c-1,0-2-1-3-1c-2,0-3,1-5,2c-1,1-1,3-2,5H578.5z M615.4,308.2h-4v-13c0-2,0-3,0-3
		c0-1,0-2-1-2c-1-1-2-1-3-1s-2,0-3,2c-1,1-2,2-2,5v12h-3v-14c0-2-1-3-1-4c-1-1-2-1-3-1c-2,0-3,0-4,1c-1,2-1,3-1,5v13h-3v-20.9h2v4
		c2-4,4-5,7-5c1,0,3,0,4,1c1,1,1,3,2,4c1-3,3-5,6-5c2,0,3,0,4,1c1,1,2,2,2,3c1,1,1,3,1,5V308.2z M623.4,308.2h-2v-28.9h3v11
		c2-3,4-4,7-4c2,0,4,1,6,3c1,2,2,5,2,8c0,3-1,6-2,8c-2,2-4,3-6,3c-3,0-6-1-7-4L623.4,308.2z M624.4,299.2c1,3,1,4,2,5c2,1,3,2,4,2
		c2,0,3-1,4-2c1-2,2-4,2-7c0-2-1-4-2-6s-2-2-4-2c-1,0-2,0-4,1c-1,1-1,3-2,5V299.2z M658.3,301.2l3,1c-1,2-2,3-3,5c-2,1-4,1-6,1
		c-3,0-5-1-7-3c-2-2-3-4-3-8c0-3,1-6,3-8c2-2,4-3,7-3c3,0,5,1,7,3c1,2,2,5,2,8h-15c0,4,1,6,2,7c1,1,3,2,4,2
		C655.3,306.2,657.3,304.2,658.3,301.2z M658.3,295.2c0-1,0-2-1-3c0-1-1-2-2-3c0,0-2-1-3-1c-1,0-3,1-4,2c-1,1-2,3-2,5H658.3z
		 M670.3,308.2h-4v-20.9h3v4c1-2,2-3,3-4c1-1,2-1,3-1s1,0,2,0v3h-1c-2,0-3,1-5,2c-1,2-1,3-1,6V308.2z M697.2,283.2v3c-1,0-2,0-3,0
		c0,1,0,1-1,2c2,2,2,4,2,5c0,2,0,4-2,5c-1,2-3,3-6,3l-1-1c-1,0-1,0-1,0c-1,0-1,0-2,1l-1,1c0,1,1,2,2,2c0,0,2,0,5,0c2,0,4,1,5,1
		s2,1,3,2c1,0,1,2,1,3c0,4-3,6-10,6c-4,0-6-1-8-2c-1-1-2-2-2-4c0-2,1-3,3-4c-1-1-2-2-2-3c0-2,1-3,3-4c-2-2-3-4-3-6s1-4,3-5
		c1-1,3-2,5-2c2,0,3,0,5,1c0-2,0-3,1-3C694.2,283.2,695.2,283.2,697.2,283.2L697.2,283.2z M687.2,298.2c2,0,3,0,4-1c1-1,1-2,1-4
		c0-1,0-2-1-3c-1-1-2-1-3-1c-2,0-3,0-4,1c-1,1-1,2-1,3c0,2,0,3,1,4C685.2,298.2,686.2,298.2,687.2,298.2z M684.2,307.2c-2,1-3,2-3,3
		c0,1,1,2,2,2c1,1,3,1,5,1c2,0,3,0,5,0c1-1,2-2,2-3c0-1,0-1-1-2h-1c-1-1-2-1-4-1C686.2,307.2,685.2,307.2,684.2,307.2z"/>
	<path class="st0" d="M176.6,206.4v-21.9V92.8h59.8v53.9L176.6,206.4z"/>
	<path class="st0" d="M167.6,206.4l-59.8,59.8V152.6l59.8-59.8V206.4z"/>
	<path class="st0" d="M167.6,92.8l-59.8,59.8v53.9h59.8V92.8z"/>
	<path class="st1" d="M422.9,148.6c0,10-1,18.9-3,26.9c-3,7-6,13-11,18c-4,5-10,8-16,10c-7,3-14,4-22.9,4h-23.9c-2,0-3-1-5-2
		c-1-1-1-3-1-6v-98.7c0-3,0-5,1-6c2-1,3-2,5-2h25.9c9,0,16,2,21.9,4c7,2,12,6,16,11c5,4,8,10,10,17
		C421.9,131.6,422.9,139.6,422.9,148.6z M402,149.6c0-6,0-11-1-15c-2-5-3-9-6-13c-2-3-5-6-9-8c-4-1-9-2-16-2h-10v76.8h11
		c5,0,10-1,14-2c4-2,7-4,10-8c2-3,4-7,5-12C402,161.6,402,155.6,402,149.6z"/>
	<path class="st1" d="M518.7,203.5c0,1,0,2,0,2c-1,1-1,1-2,1c-1,1-2,1-3,1c-2,0-3,0-5,0s-4,0-5,0c-2,0-3,0-3-1c-1,0-2,0-2-1
		c0,0,0-1,0-2v-45.9h-37.9v45.9c0,1,0,2-1,2c0,1-1,1-1,1c-1,1-2,1-3,1c-2,0-3,0-5,0c-2,0-4,0-5,0c-2,0-3,0-4-1c0,0-1,0-1-1
		c-1,0-1-1-1-2V96.7c0-1,0-2,1-2l1-1c1,0,2-1,4-1c1,0,3,0,5,0c2,0,3,0,5,0c1,0,2,1,3,1l1,1c1,0,1,1,1,2v41.9h37.9V96.7c0-1,0-2,0-2
		s1-1,2-1c0,0,1-1,3-1c1,0,3,0,5,0s3,0,5,0c1,0,2,1,3,1c1,0,1,1,2,1c0,0,0,1,0,2V203.5z"/>
	<path class="st1" d="M609.4,174.5c0,3,0,7-1,10s-2,6-4,8c-1,2-3,5-5,6c-2,2-4,4-7,5c-2,1-5,2-8,3c-3,0-6,1-10,1h-26.9c-1,0-2-1-3-2
		s-2-2-2-5V99.7c0-3,1-4,2-5c1-1,2-2,3-2h22.9c6,0,11,1,15,2c4,2,7,4,10,6c2,2,4,6,6,9c1,4,2,8,2,12c0,3-1,6-1,8c-1,3-2,5-3,7
		c-1,2-2,4-4,5c-2,2-4,3-6,5c3,0,5,1,8,3c2,1,4,3,6,6c2,2,3,5,4,8C608.4,166.6,609.4,170.5,609.4,174.5z M589.5,123.7c0-3-1-6-1-8
		c-1-2-2-4-3-5c-2-2-4-3-6-4c-3-1-6-1-9-1h-14v36.9h15c3,0,6-1,8-2c3-1,4-2,6-4c1-2,2-4,3-6C588.5,128.7,589.5,125.7,589.5,123.7z
		 M595.5,175.5c0-4-1-7-2-9c-1-3-2-5-4-7c-2-2-4-3-7-4c-3-1-6-1-10-1h-16v39.9h18.9c3,0,6,0,8-1c2-1,4-2,6-4c2-1,3-3,4-6
		C594.5,181.5,595.5,178.5,595.5,175.5z"/>
	<path class="st1" d="M724.1,203.5c0,1-1,2-1,2c0,1-1,1-2,1c0,1-1,1-2,1c-1,0-3,0-4,0c-2,0-3,0-4,0s-2,0-3-1c-1,0-1,0-2-1
		c0,0,0-1-1-2l-20.9-85.8l0,0l-18.9,85.8c-1,1-1,2-1,2c-1,1-1,1-2,1c0,1-1,1-2,1s-3,0-4,0c-2,0-4,0-5,0c-1,0-2,0-3-1c0,0-1,0-1-1
		c-1,0-1-1-1-2L619.4,98.7c0-2,0-3,0-3c0-1,0-2,0-2c1-1,2-1,3-1s2,0,4,0c1,0,2,0,3,0s2,0,3,0c0,1,0,1,1,1c0,1,0,1,0,2l22.9,95.7l0,0
		l20.9-95.7l1-1c0-1,0-1,1-1c0-1,1-1,2-1s2,0,4,0c1,0,3,0,3,0c1,0,2,0,2,1c1,0,1,0,2,1v1l22.9,95.7l0,0l22.9-95.7v-1c0-1,1-1,1-1
		c1-1,1-1,2-1s2,0,4,0c1,0,3,0,4,0s1,1,2,1c0,0,0,1,0,2c0,0,0,2,0,3L724.1,203.5z"/>
</g>
</svg>
