<?xml version="1.0" encoding="utf-8"?>
<!-- Generator: Adobe Illustrator 24.0.1, SVG Export Plug-In . SVG Version: 6.00 Build 0)  -->
<svg version="1.1" id="Capa_1" xmlns="http://www.w3.org/2000/svg" xmlns:xlink="http://www.w3.org/1999/xlink" x="0px" y="0px"
	 viewBox="0 0 512 512" style="enable-background:new 0 0 512 512;" xml:space="preserve">
<style type="text/css">
	.st0{fill:#C9BFC8;}
	.st1{fill:#E5E1E5;}
	.st2{fill:#EDB169;}
	.st3{fill:#F4C07A;}
	.st4{fill:#BAAFB9;}
	.st5{fill:#D7D0D6;}
	.st6{fill:#EEF5F6;}
	.st7{opacity:0.53;fill:#F4C07A;}
	.st8{fill:#E34E4B;}
	.st9{fill:#CAFFFE;}
	.st10{fill:#A7C69B;}
	.st11{fill:#A8D3D8;}
	.st12{fill:#FFD62C;}
	.st13{fill:#B8DDDD;}
	.st14{fill:#7CA1B1;}
	.st15{fill:#678D98;}
</style>
<path class="st0" d="M299.4,476l-4-17.1h-74.1l-1.8,17.1c0,19.9,16.1,36,36,36h7.9C283.3,512,299.4,495.9,299.4,476z"/>
<g>
	<path class="st1" d="M360.1,45.6c-4.2,0-7.6-3.4-7.6-7.6V7.6c0-4.2,3.4-7.6,7.6-7.6s7.6,3.4,7.6,7.6V38
		C367.7,42.2,364.3,45.6,360.1,45.6z"/>
</g>
<g>
	<path class="st1" d="M396.4,49.7c-4.2,0-7.6-3.4-7.6-7.6V7.6c0-4.2,3.4-7.6,7.6-7.6s7.6,3.4,7.6,7.6v34.5
		C404.1,46.3,400.6,49.7,396.4,49.7z"/>
</g>
<g>
	<path class="st1" d="M432.8,44.6c-4.2,0-7.6-3.4-7.6-7.6V7.6c0-4.2,3.4-7.6,7.6-7.6s7.6,3.4,7.6,7.6V37
		C440.4,41.2,437,44.6,432.8,44.6z"/>
</g>
<g>
	<path class="st1" d="M474,92.8h-29.4c-4.2,0-7.6-3.4-7.6-7.6s3.4-7.6,7.6-7.6H474c4.2,0,7.6,3.4,7.6,7.6S478.2,92.8,474,92.8z"/>
</g>
<g>
	<path class="st1" d="M474,129.1h-31.4c-4.2,0-7.6-3.4-7.6-7.6s3.4-7.6,7.6-7.6H474c4.2,0,7.6,3.4,7.6,7.6S478.2,129.1,474,129.1z"
		/>
</g>
<g>
	<path class="st1" d="M474,56.5h-32.4c-4.2,0-7.6-3.4-7.6-7.6s3.4-7.6,7.6-7.6H474c4.2,0,7.6,3.4,7.6,7.6S478.2,56.5,474,56.5z"/>
</g>
<path class="st2" d="M259.4,48.7c-88.8,0-161,71.2-162.6,159.7c0,0.3,0,0.7,0,1c0,0.7,0,1.3,0,1.9v0.2v0.3
	c0,45.9,19,87.3,49.6,116.9c22.6,21.8,40.4,48.1,51.6,77.3l14.2,47.5h92.6l16.1-47.5c10.9-28.8,28.1-54.9,50.5-76.2
	c31.2-29.6,50.7-71.5,50.7-118c0-0.1,0-0.2,0-0.2c0-0.1,0-0.2,0-0.3C422,121.5,349.2,48.7,259.4,48.7L259.4,48.7z"/>
<path class="st3" d="M277.6,451.5L263.4,404c-11.2-29.2-29-55.4-51.6-77.3c-30.6-29.6-49.6-71-49.6-116.9c0-0.1,0-0.2,0-0.3
	s0-0.1,0-0.2c0-0.7,0-1.3,0-1.9c0-0.3,0-0.7,0-1c1.3-75.6,54.3-138.6,125.1-155.3c-9.1-1.6-18.4-2.4-28-2.4
	c-88.8,0-161,71.2-162.6,159.7c0,0.3,0,0.7,0,1c0,0.7,0,1.3,0,1.9v0.2v0.3c0,45.9,19,87.3,49.6,116.9c22.6,21.8,40.4,48.1,51.6,77.3
	l14.2,47.5h92.6l0.7-1.9h-27.8V451.5z"/>
<path class="st4" d="M257.1,476l1.8-17.1h-37.6l-1.8,17.1c0,19.9,16.1,36,36,36h7.9c5.3,0,10.3-1.2,14.9-3.2
	C265.8,503.1,257.1,490.6,257.1,476z"/>
<path class="st5" d="M313.7,435.9H205.1v25.6c0,8,6.5,14.5,14.5,14.5h79.6c8,0,14.5-6.5,14.5-14.5V435.9z"/>
<g>
	<path class="st6" d="M226.9,435.9c-4.2,0-7.6-3.4-7.6-7.6V275.7c0-4.2,3.4-7.6,7.6-7.6c4.2,0,7.6,3.4,7.6,7.6v152.6
		C234.5,432.5,231.1,435.9,226.9,435.9z"/>
</g>
<path class="st7" d="M226.9,435.9c4.2,0,7.6-3.4,7.6-7.6v-76c-4.7-6.3-9.8-12.3-15.2-18v94C219.3,432.5,222.7,435.9,226.9,435.9z"/>
<g>
	<path class="st6" d="M267.3,431c-4.2,0-7.6-3.4-7.6-7.6V301.8c0-2,0.8-4,2.2-5.4l16.3-16.3v-61.6c0-4.2,3.4-7.6,7.6-7.6
		s7.6,3.4,7.6,7.6v64.8c0,2-0.8,4-2.2,5.4L275,305v118.5C275,427.6,271.6,431,267.3,431L267.3,431z"/>
</g>
<g>
	<path class="st6" d="M299.4,427.1c-4.2,0-7.6-3.4-7.6-7.6v-67c0-2,0.8-4,2.2-5.4l34.1-34.1v-35.7c0-4.2,3.4-7.6,7.6-7.6
		s7.6,3.4,7.6,7.6v38.9c0,2-0.8,4-2.2,5.4l-34.1,34v63.8C307,423.6,303.6,427.1,299.4,427.1L299.4,427.1z"/>
</g>
<path class="st0" d="M242.8,461.5v-25.6h-37.6v25.6c0,8,6.5,14.5,14.5,14.5h37.6C249.3,476,242.8,469.5,242.8,461.5z"/>
<path class="st1" d="M320.1,405.9H198.8c-10.2,0-18.6,8.3-18.6,18.6c0,10.2,8.3,18.6,18.6,18.6h121.3c10.2,0,18.6-8.3,18.6-18.6
	C338.6,414.2,330.3,405.9,320.1,405.9z"/>
<path class="st5" d="M217.9,424.5c0-10.2,8.3-18.6,18.6-18.6h-37.6c-10.2,0-18.6,8.3-18.6,18.6c0,10.2,8.3,18.6,18.6,18.6h37.6
	C226.2,443,217.9,434.7,217.9,424.5z"/>
<path class="st8" d="M296.4,230.7h-21.1c-3.7,0-6.8-3-6.8-6.8v-21.1c0-3.7,3-6.8,6.8-6.8h21.1c3.7,0,6.8,3,6.8,6.8v21.1
	C303.2,227.7,300.1,230.7,296.4,230.7z"/>
<path class="st9" d="M237.5,296h-21.1c-3.7,0-6.8-3-6.8-6.8v-21.1c0-3.7,3-6.8,6.8-6.8h21.1c3.7,0,6.8,3,6.8,6.8v21.1
	C244.2,292.9,241.2,296,237.5,296z"/>
<path class="st10" d="M193.1,224.5h-25.7c-3.7,0-6.8-3-6.8-6.8V192c0-3.7,3-6.8,6.8-6.8h25.7c3.7,0,6.8,3,6.8,6.8v25.7
	C199.8,221.5,196.8,224.5,193.1,224.5z"/>
<path class="st11" d="M215.1,149.5h-15.6c-3.7,0-6.8-3-6.8-6.8v-15.6c0-3.7,3-6.8,6.8-6.8h15.6c3.7,0,6.8,3,6.8,6.8v15.6
	C221.9,146.4,218.8,149.5,215.1,149.5z"/>
<path class="st8" d="M52.8,298.7H37.2c-3.7,0-6.8-3-6.8-6.8v-15.6c0-3.7,3-6.8,6.8-6.8h15.6c3.7,0,6.8,3,6.8,6.8v15.6
	C59.5,295.6,56.5,298.7,52.8,298.7z"/>
<path class="st11" d="M104.6,382.1H79.1c-3.7,0-6.8-3-6.8-6.8v-25.5c0-3.7,3-6.8,6.8-6.8h25.5c3.7,0,6.8,3,6.8,6.8v25.5
	C111.4,379.1,108.4,382.1,104.6,382.1z"/>
<path class="st12" d="M183,96.7h-29.7c-3.7,0-6.8-3-6.8-6.8V60.3c0-3.7,3-6.8,6.8-6.8H183c3.7,0,6.8,3,6.8,6.8V90
	C189.8,93.7,186.8,96.7,183,96.7z"/>
<path class="st8" d="M425.4,415.8h-32.9c-3.7,0-6.8-3-6.8-6.8v-32.9c0-3.7,3-6.8,6.8-6.8h32.9c3.7,0,6.8,3,6.8,6.8V409
	C432.1,412.8,429.1,415.8,425.4,415.8z"/>
<path class="st10" d="M465.5,337.7h-19.3c-3.7,0-6.8-3-6.8-6.8v-19.3c0-3.7,3-6.8,6.8-6.8h19.3c3.7,0,6.8,3,6.8,6.8v19.3
	C472.3,334.6,469.2,337.7,465.5,337.7L465.5,337.7z"/>
<path class="st8" d="M108.7,39.6H90.8c-3.7,0-6.8-3-6.8-6.8V14.9c0-3.7,3-6.8,6.8-6.8h17.9c3.7,0,6.8,3,6.8,6.8v17.9
	C115.5,36.6,112.5,39.6,108.7,39.6z"/>
<path class="st11" d="M58,100.9H44.1c-3.7,0-6.8-3-6.8-6.8V80.2c0-3.7,3-6.8,6.8-6.8H58c3.7,0,6.8,3,6.8,6.8v13.9
	C64.8,97.9,61.7,100.9,58,100.9z"/>
<path class="st11" d="M343.2,289.3h-16.6c-2.8,0-5.2-2.3-5.2-5.2v-16.6c0-2.8,2.3-5.2,5.2-5.2h16.6c2.8,0,5.2,2.3,5.2,5.2v16.6
	C348.4,287,346.1,289.3,343.2,289.3z"/>
<path class="st3" d="M310.7,56.9v72.5c0,22.9,18.6,41.5,41.5,41.5H417C403.3,117.2,362.8,74.2,310.7,56.9L310.7,56.9z"/>
<g>
	<path class="st1" d="M396.4,170.3c-4.2,0-7.6-3.4-7.6-7.6v-31.4c0-4.2,3.4-7.6,7.6-7.6s7.6,3.4,7.6,7.6v31.4
		C404.1,166.9,400.6,170.3,396.4,170.3z"/>
</g>
<g>
	<path class="st1" d="M360.1,170.3c-4.2,0-7.6-3.4-7.6-7.6v-35.5c0-4.2,3.4-7.6,7.6-7.6s7.6,3.4,7.6,7.6v35.5
		C367.7,166.9,364.3,170.3,360.1,170.3z"/>
</g>
<g>
	<path class="st1" d="M432.8,170.3c-4.2,0-7.6-3.4-7.6-7.6v-34.5c0-4.2,3.4-7.6,7.6-7.6s7.6,3.4,7.6,7.6v34.5
		C440.4,166.9,437,170.3,432.8,170.3z"/>
</g>
<g>
	<path class="st1" d="M350.3,92.8h-31.4c-4.2,0-7.6-3.4-7.6-7.6s3.4-7.6,7.6-7.6h31.4c4.2,0,7.6,3.4,7.6,7.6S354.5,92.8,350.3,92.8z
		"/>
</g>
<g>
	<path class="st1" d="M351.3,56.5h-32.4c-4.2,0-7.6-3.4-7.6-7.6s3.4-7.6,7.6-7.6h32.4c4.2,0,7.6,3.4,7.6,7.6S355.5,56.5,351.3,56.5z
		"/>
</g>
<g>
	<path class="st1" d="M348.3,129.1h-29.4c-4.2,0-7.6-3.4-7.6-7.6s3.4-7.6,7.6-7.6h29.4c4.2,0,7.6,3.4,7.6,7.6
		S352.5,129.1,348.3,129.1z"/>
</g>
<path class="st11" d="M440.7,145.5h-88.6c-8.9,0-16.1-7.2-16.1-16.1V40.9c0-8.9,7.2-16.1,16.1-16.1h88.6c8.9,0,16.1,7.2,16.1,16.1
	v88.6C456.8,138.3,449.6,145.5,440.7,145.5L440.7,145.5z"/>
<path class="st13" d="M373.6,129.4V40.9c0-8.9,7.2-16.1,16.1-16.1h-37.5c-8.9,0-16.1,7.2-16.1,16.1v88.6c0,8.9,7.2,16.1,16.1,16.1
	h37.5C380.8,145.5,373.6,138.3,373.6,129.4z"/>
<path class="st14" d="M366.6,110.4V59.9c0-2.6,2.1-4.6,4.6-4.6h50.5c2.6,0,4.6,2.1,4.6,4.6v50.5c0,2.6-2.1,4.6-4.6,4.6h-50.5
	C368.6,115,366.6,113,366.6,110.4z"/>
<path class="st15" d="M371.2,55.3c-2.6,0-4.6,2.1-4.6,4.6v50.5c0,2.6,2.1,4.6,4.6,4.6h2.4V55.3H371.2z"/>
</svg>
