<?xml version="1.0" encoding="utf-8"?>
<!-- Generator: Adobe Illustrator 25.0.1, SVG Export Plug-In . SVG Version: 6.00 Build 0)  -->
<svg version="1.1" id="Ebene_1" xmlns="http://www.w3.org/2000/svg" xmlns:xlink="http://www.w3.org/1999/xlink" x="0px" y="0px"
	 viewBox="0 0 297 210" style="enable-background:new 0 0 297 210;" xml:space="preserve">
<style type="text/css">
	.st0{fill:#523E14;}
	.st1{fill:#9FB946;stroke:#91A23E;stroke-linecap:round;stroke-linejoin:round;}
	.st2{fill:#E4EAEA;}
	.st3{opacity:0.68;fill:#A5BCCA;enable-background:new    ;}
	.st4{fill:#9AADB4;}
	.st5{fill:#1EACE2;stroke:#E8E9EA;stroke-miterlimit:10;}
	.st6{fill:none;stroke:#E8E9EA;stroke-miterlimit:10;}
	.st7{fill:#29A8E1;stroke:#DBE1E2;stroke-miterlimit:10;}
	.st8{fill:none;stroke:#9BAFB8;stroke-width:1.5;stroke-miterlimit:10;}
	.st9{fill:#D5E0E7;}
	.st10{fill:none;stroke:#BBC4C9;stroke-miterlimit:10;}
	.st11{fill:#4C6088;}
	.st12{fill:#A5BCCA;}
	.st13{fill:#9BACBB;}
	.st14{fill:#2E415C;}
	.st15{opacity:0.4;fill:#E4EAEA;enable-background:new    ;}
</style>
<g>
	<rect x="16.1" y="152.2" class="st0" width="4.7" height="6.4"/>
	<path class="st1" d="M11.3,152.2h14.2c0.4,0,0.7-0.3,0.7-0.7c0-0.1,0-0.1,0-0.2l-7.1-32.7c-0.1-0.4-0.5-0.6-0.8-0.5
		c-0.3,0.1-0.5,0.3-0.5,0.5l-7.1,32.7c-0.1,0.4,0.2,0.8,0.5,0.9C11.2,152.2,11.3,152.2,11.3,152.2z"/>
</g>
<g>
	<rect x="269.3" y="151.2" class="st0" width="4.7" height="6.4"/>
	<path class="st1" d="M264.5,151.2h14.2c0.4,0,0.7-0.3,0.7-0.7c0-0.1,0-0.1,0-0.2l-7.1-32.7c-0.1-0.4-0.5-0.6-0.8-0.5
		c-0.3,0.1-0.5,0.3-0.5,0.5l-7.1,32.7c-0.1,0.4,0.2,0.8,0.5,0.9C264.4,151.2,264.5,151.3,264.5,151.2z"/>
</g>
<rect x="22.7" y="123.4" class="st2" width="175.5" height="34.3"/>
<rect x="70.7" y="118.7" class="st3" width="127.5" height="4.7"/>
<rect x="65.1" y="72.5" class="st2" width="124.6" height="18.4"/>
<polyline class="st4" points="70.7,94 189.7,94 189.7,90.8 65.1,90.8 "/>
<g>
	<rect x="70.7" y="94.4" class="st5" width="118.9" height="10.6"/>
	<line class="st6" x1="89.3" y1="105" x2="89.3" y2="94.4"/>
	<polyline class="st6" points="107.1,94.4 114.5,94.4 114.5,105 	"/>
	<line class="st6" x1="140" y1="105" x2="140" y2="94.4"/>
	<line class="st6" x1="164.9" y1="105" x2="164.9" y2="94.4"/>
</g>
<g>
	<rect x="117.8" y="128.7" class="st5" width="75.1" height="16.1"/>
	<line class="st6" x1="143.3" y1="144.1" x2="143.3" y2="128.1"/>
	<line class="st6" x1="168.2" y1="145.4" x2="168.2" y2="129.4"/>
</g>
<g>
	<rect x="25.6" y="128.1" class="st5" width="50.3" height="16.1"/>
	<line class="st6" x1="42.6" y1="143.5" x2="42.6" y2="127.4"/>
	<line class="st6" x1="59.3" y1="144.8" x2="59.3" y2="128.7"/>
</g>
<rect x="189.7" y="54.1" class="st2" width="83" height="8.5"/>
<g>
	<rect x="96.9" y="128.1" class="st7" width="15.1" height="29.3"/>
	<rect x="80.9" y="128.1" class="st7" width="15.1" height="29.3"/>
</g>
<rect x="79.6" y="126.9" class="st8" width="33.6" height="32.3"/>
<g>
	<rect x="8.6" y="157.7" class="st9" width="266.8" height="3.9"/>
	<line class="st10" x1="9.9" y1="157.7" x2="9.9" y2="161.6"/>
	<line class="st10" x1="36.5" y1="157.7" x2="36.5" y2="161.6"/>
	<line class="st10" x1="63.1" y1="157.7" x2="63.1" y2="161.6"/>
	<line class="st10" x1="89.3" y1="157.7" x2="89.3" y2="161.6"/>
	<line class="st10" x1="115.4" y1="157.7" x2="115.4" y2="161.6"/>
	<line class="st10" x1="141.9" y1="157.7" x2="141.9" y2="161.6"/>
	<line class="st10" x1="168.6" y1="157.7" x2="168.6" y2="161.6"/>
	<line class="st10" x1="194.8" y1="157.7" x2="194.8" y2="161.6"/>
	<line class="st10" x1="221.3" y1="157.7" x2="221.3" y2="161.6"/>
	<line class="st10" x1="247.7" y1="157.7" x2="247.7" y2="161.6"/>
	<line class="st10" x1="274.6" y1="157.7" x2="274.6" y2="161.6"/>
</g>
<rect x="244.5" y="62.7" class="st11" width="21.7" height="95"/>
<rect x="196.2" y="62.6" class="st11" width="21.7" height="95"/>
<polygon class="st12" points="65.1,113.8 197.9,113.8 196.3,118.7 70.7,118.7 "/>
<rect x="189.4" y="54.1" class="st2" width="8.5" height="51"/>
<rect x="65.1" y="104.4" class="st2" width="132.8" height="9.4"/>
<polygon class="st13" points="266.2,62.7 272.6,62.7 266.2,70.2 "/>
<rect x="217.4" y="62.6" class="st13" width="27.7" height="7.7"/>
<g>
	<rect x="217.9" y="70.3" class="st5" width="26.7" height="87.3"/>
	<line class="st6" x1="217.9" y1="99.9" x2="244.5" y2="99.9"/>
	<line class="st6" x1="217.8" y1="129.4" x2="244.5" y2="129.4"/>
</g>
<polygon class="st14" points="196.2,157.6 198.2,157.7 197.9,113.8 196.2,118.8 "/>
<polygon class="st15" points="231.1,70.2 244.5,70.2 244.5,86.3 "/>
<polygon class="st15" points="105.7,94.5 114.3,94.5 114.2,104.8 111.6,104.8 "/>
<polygon class="st15" points="180,129.2 193,129.2 192.9,144.8 190,144.8 "/>
<polygon class="st15" points="97.1,128.4 111.8,128.4 111.8,148.8 97.1,131 "/>
<polygon class="st15" points="223.5,99.9 244.5,99.9 244.5,125.6 "/>
<polygon class="st15" points="122.9,104.8 114.3,104.8 114.3,94.5 117,94.5 "/>
<polygon class="st15" points="38,143.8 26.1,143.8 26.1,128.4 29.8,128.4 "/>
<polygon class="st15" points="156.3,94.2 164.9,94.2 164.8,104.5 162.2,104.5 "/>
<polygon class="st15" points="173.5,104.5 164.9,104.5 164.9,94.2 167.6,94.2 "/>
<polygon class="st15" points="151.8,94.6 154.5,94.6 160.6,104.8 158.1,104.8 "/>
<polygon class="st15" points="121.3,129.2 126.4,129.2 137.8,145.6 133.2,145.6 "/>
</svg>
