<?xml version="1.0" encoding="utf-8"?>
<!-- Generator: Adobe Illustrator 25.0.1, SVG Export Plug-In . SVG Version: 6.00 Build 0)  -->
<svg version="1.1" id="Ebene_1" xmlns="http://www.w3.org/2000/svg" xmlns:xlink="http://www.w3.org/1999/xlink" x="0px" y="0px"
	 viewBox="0 0 297 210" style="enable-background:new 0 0 297 210;" xml:space="preserve">
<style type="text/css">
	.st0{fill:#523E14;}
	.st1{fill:#9FB946;stroke:#91A23E;stroke-linecap:round;stroke-linejoin:round;}
	.st2{fill:#E4EAEA;}
	.st3{opacity:0.68;fill:#A5BCCA;enable-background:new    ;}
	.st4{fill:#1EACE2;stroke:#E8E9EA;stroke-miterlimit:10;}
	.st5{fill:none;stroke:#E8E9EA;stroke-miterlimit:10;}
	.st6{fill:#29A8E1;stroke:#DBE1E2;stroke-miterlimit:10;}
	.st7{fill:none;stroke:#9BAFB8;stroke-width:1.5;stroke-miterlimit:10;}
	.st8{fill:#D5E0E7;}
	.st9{fill:none;stroke:#BBC4C9;stroke-miterlimit:10;}
	.st10{fill:#4C6088;}
	.st11{fill:#A5BCCA;}
	.st12{fill:#9BACBB;}
	.st13{fill:#2E415C;}
	.st14{opacity:0.4;fill:#E4EAEA;enable-background:new    ;}
	.st15{fill:#969696;stroke:#777777;stroke-width:3;stroke-miterlimit:10;}
	.st16{fill:#E4EAEA;stroke:#777777;stroke-width:3;stroke-miterlimit:10;}
	.st17{fill:#777777;}
	.st18{font-family:'Roboto-Regular';}
	.st19{font-size:9px;}
	.st20{fill:none;stroke:#E4EAEA;stroke-width:3;stroke-miterlimit:10;}
	.st21{fill:#41567E;}
	.st22{fill:#1D1D1B;}
	.st23{font-size:6px;}
	.st24{fill:#969696;}
	.st25{fill:#CFCECE;}
</style>
<g>
	<rect x="16.1" y="152.2" class="st0" width="4.7" height="6.4"/>
	<path class="st1" d="M11.3,152.2h14.2c0.4,0,0.7-0.3,0.7-0.7c0-0.1,0-0.1,0-0.2l-7.1-32.7c-0.1-0.4-0.5-0.6-0.8-0.5
		c-0.3,0.1-0.5,0.3-0.5,0.5l-7.1,32.7c-0.1,0.4,0.2,0.8,0.5,0.9C11.2,152.2,11.3,152.2,11.3,152.2z"/>
</g>
<g>
	<rect x="269.3" y="151.2" class="st0" width="4.7" height="6.4"/>
	<path class="st1" d="M264.5,151.2h14.2c0.4,0,0.7-0.3,0.7-0.7c0-0.1,0-0.1,0-0.2l-7.1-32.7c-0.1-0.4-0.5-0.6-0.8-0.5
		c-0.3,0.1-0.5,0.3-0.5,0.5l-7.1,32.7c-0.1,0.4,0.2,0.8,0.5,0.9C264.4,151.2,264.5,151.3,264.5,151.2z"/>
</g>
<rect x="22.7" y="123.4" class="st2" width="175.5" height="34.3"/>
<rect x="70.7" y="118.7" class="st3" width="127.5" height="4.7"/>
<rect x="65.1" y="72.5" class="st2" width="124.6" height="18.4"/>
<g>
	<rect x="70.7" y="94.4" class="st4" width="118.9" height="10.6"/>
	<line class="st5" x1="89.3" y1="105" x2="89.3" y2="94.4"/>
	<polyline class="st5" points="107.1,94.4 114.5,94.4 114.5,105 	"/>
	<line class="st5" x1="140" y1="105" x2="140" y2="94.4"/>
	<line class="st5" x1="164.9" y1="105" x2="164.9" y2="94.4"/>
</g>
<g>
	<rect x="117.8" y="128.7" class="st4" width="75.1" height="16.1"/>
	<line class="st5" x1="143.3" y1="144.1" x2="143.3" y2="128.1"/>
	<line class="st5" x1="168.2" y1="145.4" x2="168.2" y2="129.4"/>
</g>
<g>
	<rect x="25.6" y="128.1" class="st4" width="50.3" height="16.1"/>
	<line class="st5" x1="42.6" y1="143.5" x2="42.6" y2="127.4"/>
	<line class="st5" x1="59.3" y1="144.8" x2="59.3" y2="128.7"/>
</g>
<rect x="189.7" y="54.1" class="st2" width="83" height="8.5"/>
<g>
	<rect x="96.9" y="128.1" class="st6" width="15.1" height="29.3"/>
	<rect x="80.9" y="128.1" class="st6" width="15.1" height="29.3"/>
</g>
<rect x="79.6" y="126.9" class="st7" width="33.6" height="32.3"/>
<g>
	<rect x="8.6" y="157.7" class="st8" width="266.8" height="3.9"/>
	<line class="st9" x1="9.9" y1="157.7" x2="9.9" y2="161.6"/>
	<line class="st9" x1="36.5" y1="157.7" x2="36.5" y2="161.6"/>
	<line class="st9" x1="63.1" y1="157.7" x2="63.1" y2="161.6"/>
	<line class="st9" x1="89.3" y1="157.7" x2="89.3" y2="161.6"/>
	<line class="st9" x1="115.4" y1="157.7" x2="115.4" y2="161.6"/>
	<line class="st9" x1="141.9" y1="157.7" x2="141.9" y2="161.6"/>
	<line class="st9" x1="168.6" y1="157.7" x2="168.6" y2="161.6"/>
	<line class="st9" x1="194.8" y1="157.7" x2="194.8" y2="161.6"/>
	<line class="st9" x1="221.3" y1="157.7" x2="221.3" y2="161.6"/>
	<line class="st9" x1="247.7" y1="157.7" x2="247.7" y2="161.6"/>
	<line class="st9" x1="274.6" y1="157.7" x2="274.6" y2="161.6"/>
</g>
<rect x="244.5" y="62.7" class="st10" width="21.7" height="95"/>
<rect x="196.2" y="62.6" class="st10" width="21.7" height="95"/>
<polygon class="st11" points="65.1,113.8 197.9,113.8 196.3,118.7 70.7,118.7 "/>
<rect x="189.4" y="54.1" class="st2" width="8.5" height="51"/>
<rect x="65.1" y="104.4" class="st2" width="132.8" height="9.4"/>
<polygon class="st12" points="266.2,62.7 272.6,62.7 266.2,70.2 "/>
<rect x="217.4" y="62.6" class="st12" width="27.7" height="7.7"/>
<g>
	<rect x="217.9" y="70.3" class="st4" width="26.7" height="87.3"/>
	<line class="st5" x1="217.9" y1="99.9" x2="244.5" y2="99.9"/>
	<line class="st5" x1="217.8" y1="129.4" x2="244.5" y2="129.4"/>
</g>
<polygon class="st13" points="196.2,157.6 198.2,157.7 197.9,113.8 196.2,118.8 "/>
<polygon class="st14" points="231.1,70.2 244.5,70.2 244.5,86.3 "/>
<polygon class="st14" points="105.7,94.5 114.3,94.5 114.2,104.8 111.6,104.8 "/>
<polygon class="st14" points="180,129.2 193,129.2 192.9,144.8 190,144.8 "/>
<polygon class="st14" points="97.1,128.4 111.8,128.4 111.8,148.8 97.1,131 "/>
<polygon class="st14" points="223.5,99.9 244.5,99.9 244.5,125.6 "/>
<polygon class="st14" points="122.9,104.8 114.3,104.8 114.3,94.5 117,94.5 "/>
<polygon class="st14" points="38,143.8 26.1,143.8 26.1,128.4 29.8,128.4 "/>
<polygon class="st14" points="156.3,94.2 164.9,94.2 164.8,104.5 162.2,104.5 "/>
<polygon class="st14" points="173.5,104.5 164.9,104.5 164.9,94.2 167.6,94.2 "/>
<polygon class="st14" points="151.8,94.6 154.5,94.6 160.6,104.8 158.1,104.8 "/>
<polygon class="st14" points="121.3,129.2 126.4,129.2 137.8,145.6 133.2,145.6 "/>
<polygon class="st15" points="266.2,69 266.2,156.4 20.8,157.3 22.7,122.2 70.7,122.2 70.7,117.5 65.1,112.6 65.1,103.2 70.7,103.7 
	70.7,93.1 65.1,89.6 65.1,71.3 189.7,71.3 189.4,52.9 272.6,52.9 272.6,61.4 "/>
<rect x="203" y="76.4" class="st16" width="57.1" height="34.6"/>
<rect x="203" y="118.2" class="st16" width="57.1" height="34.6"/>
<rect x="139.4" y="76.3" class="st16" width="57.1" height="34.6"/>
<rect x="139.4" y="118.1" class="st16" width="57.1" height="34.6"/>
<rect x="75.9" y="76.3" class="st16" width="57.1" height="34.6"/>
<rect x="75.9" y="118.1" class="st16" width="57.1" height="34.6"/>
<text transform="matrix(1 0 0 1 81.5 105.54)" class="st17 st18 st19">57%</text>
<text transform="matrix(1 0 0 1 81.5 105.54)" class="st20 st18 st19">57%</text>
<text transform="matrix(1 0 0 1 112.33 105.54)" class="st21 st18 st19">52%</text>
<text transform="matrix(1 0 0 1 89.04 87.61)" class="st22 st18 st23">P</text>
<text transform="matrix(1 0 0 1 92.85 87.61)" class="st22 st18 st23">r</text>
<text transform="matrix(1 0 0 1 94.9 87.61)" class="st22 st18 st23">oduktion, </text>
<text transform="matrix(1 0 0 1 81.7 94.81)" class="st22 st18 st23">Dienstleistungen</text>
<text transform="matrix(1 0 0 1 145.1 105.71)" class="st17 st18 st19">14%</text>
<text transform="matrix(1 0 0 1 145.1 105.71)" class="st20 st18 st19">14%</text>
<text transform="matrix(1 0 0 1 175.94 105.71)" class="st21 st18 st19">37%</text>
<text transform="matrix(1 0 0 1 148.1 87.78)" class="st22 st18 st23">Administration</text>
<text transform="matrix(1 0 0 1 208.68 105.07)" class="st17 st18 st19">8%</text>
<text transform="matrix(1 0 0 1 208.68 105.07)" class="st20 st18 st19">8%</text>
<text transform="matrix(1 0 0 1 242.52 105.07)" class="st21 st18 st19">5%</text>
<text transform="matrix(1 0 0 1 206.11 87.13)" class="st22 st18 st23">V</text>
<text transform="matrix(1 0 0 1 209.78 87.13)" class="st22 st18 st23">e</text>
<text transform="matrix(1 0 0 1 212.92 87.13)" class="st22 st18 st23">r</text>
<text transform="matrix(1 0 0 1 215.07 87.13)" class="st22 st18 st23">trieb, Mar</text>
<text transform="matrix(1 0 0 1 240.54 87.13)" class="st22 st18 st23">k</text>
<text transform="matrix(1 0 0 1 243.55 87.13)" class="st22 st18 st23">eting</text>
<text transform="matrix(1 0 0 1 81.5 147.59)" class="st17 st18 st19">36%</text>
<text transform="matrix(1 0 0 1 81.5 147.59)" class="st20 st18 st19">36%</text>
<text transform="matrix(1 0 0 1 112.33 147.59)" class="st21 st18 st19">21%</text>
<text transform="matrix(1 0 0 1 83.82 129.66)" class="st22 st18 st23">F</text>
<text transform="matrix(1 0 0 1 87.07 129.66)" class="st22 st18 st23">uE, Inn</text>
<text transform="matrix(1 0 0 1 104.98 129.66)" class="st22 st18 st23">ov</text>
<text transform="matrix(1 0 0 1 111.32 129.66)" class="st22 st18 st23">ation</text>
<text transform="matrix(1 0 0 1 145.1 147.59)" class="st17 st18 st19">26%</text>
<text transform="matrix(1 0 0 1 145.1 147.59)" class="st20 st18 st19">26%</text>
<text transform="matrix(1 0 0 1 175.94 147.59)" class="st21 st18 st19">20%</text>
<text transform="matrix(1 0 0 1 140.83 129.65)" class="st22 st18 st23">Informationstechnik</text>
<text transform="matrix(1 0 0 1 208.68 147.59)" class="st17 st18 st19">4%</text>
<text transform="matrix(1 0 0 1 208.68 147.59)" class="st20 st18 st19">4%</text>
<text transform="matrix(1 0 0 1 242.52 147.59)" class="st21 st18 st19">3%</text>
<text transform="matrix(1 0 0 1 209.65 129.65)" class="st22 st18 st23">Einkauf/Logistik</text>
<g>
	<path class="st24" d="M151.4,180c-1.9,0-3.5,1.6-3.5,3.5c0,0,0,0,0,0v0.9c0,1.9,1.6,3.5,3.5,3.5c0,0,0,0,0,0h8.4v-8L151.4,180z"/>
	<path class="st21" d="M169.1,180h-8.4v8h8.4c1.9,0,3.5-1.6,3.5-3.5c0,0,0,0,0,0v-0.9C172.7,181.6,171.1,180,169.1,180
		C169.1,180,169.1,180,169.1,180z"/>
</g>
<text transform="matrix(1 0 0 1 133.69 186.1)" class="st25 st18 st23">IKT</text>
<text transform="matrix(1 0 0 1 177.72 186.1)" class="st25 st18 st23">Gesamtwi</text>
<text transform="matrix(1 0 0 1 204.68 186.1)" class="st25 st18 st23">r</text>
<text transform="matrix(1 0 0 1 206.83 186.1)" class="st25 st18 st23">tschaft</text>
</svg>
