<?xml version="1.0" encoding="utf-8"?>
<!-- Generator: Adobe Illustrator 24.0.1, SVG Export Plug-In . SVG Version: 6.00 Build 0)  -->
<svg version="1.1" id="Ebene_1" xmlns="http://www.w3.org/2000/svg" xmlns:xlink="http://www.w3.org/1999/xlink" x="0px" y="0px"
	 viewBox="0 0 496 496" style="enable-background:new 0 0 496 496;" xml:space="preserve">
<style type="text/css">
	.st0{fill:#FF826E;}
	.st1{fill:#B4DD7F;}
	.st2{fill:#A8C8CC;}
	.st3{fill:#B27946;}
	.st4{fill:#F0D0B4;}
	.st5{fill:#F4C07A;}
</style>
<path class="st0" d="M336,248v-46.7c0-7.5-2.4-14.7-6.6-20.5c-4.2-5.8-10.2-10.4-17.4-12.8l-6.6-6.6l1.3-1.4l53.4-16c0,0,8,16,24,16
	s24-16,24-16l57.2,17.1c13.5,4.1,22.8,16.6,22.8,30.7V256h-56v-8c0-26.5-21.5-48-48-48c-13.3,0-25.3,5.4-33.9,14.1
	C341.4,222.7,336,234.7,336,248z"/>
<path class="st0" d="M160,220.9V248c0-13.3-5.4-25.3-14.1-33.9c-8.6-8.7-20.6-14.1-33.9-14.1c-26.5,0-48,21.5-48,48v8H8v-64.2
	c0-14.2,9.3-26.6,22.8-30.7L88,144c0,0,8,16,24,16s24-16,24-16l50.6,15.2C170.2,174.6,160,196.6,160,220.9z"/>
<path class="st1" d="M440,448h-40c-8.8,0-16,7.2-16,16v-49.8c0-22.3-15.4-41.7-37.2-46.7l-49.9-11.5l-0.3-0.1c1.9-1.1,4.1-2,6.2-2.7
	L360,336c0,0,8,16,24,16s24-16,24-16l57.2,17.1c13.5,4.1,22.8,16.6,22.8,30.7V448H440z"/>
<path class="st1" d="M199.2,355.9l-50,11.5c-21.8,5-37.2,24.4-37.2,46.7V464c0-8.8-7.2-16-16-16H8v-64.2c0-14.2,9.3-26.6,22.8-30.7
	L88,336c0,0,8,16,24,16s24-16,24-16l57.2,17.1c2.2,0.7,4.3,1.6,6.2,2.7L199.2,355.9z"/>
<path class="st2" d="M168,488h-56v-73.8c0-22.3,15.4-41.7,37.2-46.7l50-11.5L216,352h64l16.8,4.1l0.1-0.2l49.9,11.5
	c21.8,5,37.2,24.4,37.2,46.7V488H168z"/>
<path class="st0" d="M264,416l8,72h-48l8-72H264z"/>
<path class="st0" d="M272.7,390.8L272,392l-8,24h-32l-8-24l-0.7-1.2L248,376L272.7,390.8z"/>
<path class="st2" d="M296.6,355.8l0.3,0.1l-0.1,0.2L288,400l-15.3-9.2L248,376l32-24L296.6,355.8z"/>
<path class="st2" d="M199.4,355.8L216,352l32,24l-24.7,14.8L208,400l-8.8-44.1L199.4,355.8z"/>
<path class="st3" d="M432,56v8h-12.7c-7.2,0-14.2-2.9-19.3-8c-5.1,5.1-12.1,8-19.3,8H336v-8c0-13.3,5.4-25.3,14.1-33.9
	C358.7,13.4,370.7,8,384,8C410.5,8,432,29.5,432,56z"/>
<path class="st3" d="M160,64h-44.7c-7.2,0-14.2-2.9-19.3-8c-5.1,5.1-12.1,8-19.3,8H64v-8c0-26.5,21.5-48,48-48
	c13.3,0,25.3,5.4,33.9,14.1C154.6,30.7,160,42.7,160,56V64z"/>
<path class="st4" d="M360,121.5c7,4.2,15.3,6.5,24,6.5c8.8,0,17-2.3,24-6.5V144c0,0-8,16-24,16s-24-16-24-16V121.5z"/>
<path class="st4" d="M408,121.5c-7,4.2-15.2,6.5-24,6.5c-8.7,0-17-2.3-24-6.5c-14.3-8.2-24-23.8-24-41.5V64h44.7
	c7.2,0,14.2-2.9,19.3-8c5.1,5.1,12.1,8,19.3,8H432v16c0,13.3-5.4,25.3-14.1,33.9C415,116.9,411.7,119.4,408,121.5z"/>
<path class="st4" d="M88,121.5l24,6.5c8.8,0,17-2.3,24-6.5V144c0,0-8,16-24,16s-24-16-24-16V121.5z"/>
<path class="st4" d="M136,121.5c-7,4.2-15.2,6.5-24,6.5l-24-6.5c-3.7-2.1-7-4.6-9.9-7.6C69.4,105.3,64,93.3,64,80V64h12.7
	c7.2,0,14.2-2.9,19.3-8c5.1,5.1,12.1,8,19.3,8H160v16C160,97.8,150.3,113.3,136,121.5z"/>
<path class="st3" d="M368,248c-5.1,5.1-12.1,8-19.3,8H336v-8c0-13.3,5.4-25.3,14.1-33.9c8.6-8.7,20.6-14.1,33.9-14.1
	c26.5,0,48,21.5,48,48v8h-44.7C380.1,256,373.1,253.1,368,248z"/>
<path class="st3" d="M147.3,256c-7.2,0-14.2-2.9-19.3-8c-5.1,5.1-12.1,8-19.3,8H64v-8c0-26.5,21.5-48,48-48
	c13.3,0,25.3,5.4,33.9,14.1c8.7,8.6,14.1,20.6,14.1,33.9v8H147.3z"/>
<path class="st5" d="M186.6,159.2c15.2-14.4,35.7-23.2,58.2-23.2c11.3,0,22.2,2.2,32.5,6.5c10.2,4.2,19.6,10.5,27.5,18.4l7.1,7.1
	c7.2,2.4,13.1,7,17.4,12.8c4.2,5.8,6.6,13,6.6,20.5V264c0-1-0.1-2.1-0.2-3.1c-1.5-16.2-15.7-28.2-31.8-28.8
	c-0.5-0.1-0.9-0.1-1.4-0.1H288l-8-16c-15.7,10.4-34,16-52.9,16h-33.8c-0.5,0-0.9,0-1.4,0.1c-16.2,0.6-30.3,12.6-31.8,28.8
	c-0.1,1-0.2,2.1-0.2,3.1v-43.1C160,196.6,170.2,174.6,186.6,159.2z"/>
<g>
	<path class="st4" d="M360,313.5c7,4.2,15.3,6.5,24,6.5c8.8,0,17-2.3,24-6.5V336c0,0-8,16-24,16s-24-16-24-16V313.5z"/>
	<path class="st4" d="M88,313.5l24,6.5c8.8,0,17-2.3,24-6.5V336c0,0-8,16-24,16s-24-16-24-16V313.5z"/>
	<path class="st4" d="M136,313.5c-7,4.2-15.2,6.5-24,6.5l-24-6.5c-3.7-2.1-7-4.6-9.9-7.6C69.4,297.3,64,285.3,64,272v-16h44.7
		c7.2,0,14.2-2.9,19.3-8c5.1,5.1,12.1,8,19.3,8H160v16C160,289.8,150.3,305.3,136,313.5z"/>
	<path class="st4" d="M360,313.5c-14.3-8.2-24-23.8-24-41.5v-16h12.7c7.2,0,14.2-2.9,19.3-8c5.1,5.1,12.1,8,19.3,8H432v16
		c0,13.3-5.4,25.3-14.1,33.9c-3,3-6.2,5.5-9.9,7.6c-7,4.2-15.2,6.5-24,6.5C375.3,320,367,317.7,360,313.5z"/>
	<path class="st4" d="M216,352v-24l0.7-1.5c23.6,9.1,27.4,9.5,31.3,9.5c11.6,0,22.4-3.5,31.3-9.5l0.7,1.5v24l-32,24L216,352z"/>
	<path class="st4" d="M336,264L336,264c0,17.7-14.3,32-32,32l-2.2-0.6c1.4-4.9,2.2-10.1,2.2-15.4v-47.9
		c16.2,0.6,30.3,12.6,31.8,28.8C335.9,261.9,336,263,336,264z"/>
	<path class="st4" d="M192,280c0,5.4,0.7,10.6,2.2,15.4L192,296c-17.7,0-32-14.3-32-31.9V264c0-1,0.1-2.1,0.2-3.1
		c1.5-16.2,15.7-28.2,31.8-28.8V280z"/>
	<path class="st4" d="M304,232.1V280c0,5.4-0.7,10.6-2.2,15.4c-3.7,12.8-11.8,23.8-22.6,31c-8.9,6-19.7,9.5-31.3,9.5
		c-3.8,0-7.7-0.4-31.3-9.5c-3-2.1-5.8-4.3-8.3-6.9c-6.6-6.6-11.6-14.9-14.2-24.2c-1.4-4.9-2.2-10.1-2.2-15.4v-47.9
		c0.5-0.1,0.9-0.1,1.4-0.1h33.8c18.9,0,37.2-5.6,52.9-16l8,16h14.6C303.1,232,303.5,232,304,232.1z"/>
</g>
<path d="M496,256v-64.2c0-17.8-11.5-33.2-28.5-38.3L416,138v-12.2c14.5-10.1,24-26.9,24-45.9V56c0-30.9-25.1-56-56-56
	s-56,25.1-56,56v24c0,19,9.5,35.8,24,45.9V138l-45.4,13.6c-17-15.2-38.7-23.7-61.8-23.7c-22.9,0-43.9,8.4-60.2,22.3L144,138v-12.2
	c14.5-10.1,24-26.9,24-45.9V56c0-30.9-25.1-56-56-56S56,25.1,56,56v24c0,19,9.5,35.8,24,45.9V138l-51.5,15.4
	C11.5,158.6,0,174,0,191.8V256h16v-64.2c0-10.7,6.9-19.9,17.1-23l51.5-15.5c4.7,6,13.7,14.6,27.4,14.6s22.7-8.6,27.4-14.6l32.8,9.8
	c-10.4,13.1-17.4,29-19.5,46.5C142.5,198.8,128.1,192,112,192c-30.9,0-56,25.1-56,56v24c0,19,9.5,35.8,24,45.9V330l-51.5,15.4
	C11.5,350.6,0,366,0,383.8V456h96c4.4,0,8,3.6,8,8v32h288v-32c0-4.4,3.6-8,8-8h96v-72.2c0-17.8-11.5-33.2-28.5-38.3L416,330v-12.2
	c14.5-10.1,24-26.9,24-45.9v-24c0-30.9-25.1-56-56-56c-15.7,0-29.8,6.5-40,16.9v-7.6c0-15.8-8.6-30-22-37.5l34.6-10.4
	c4.7,6,13.7,14.6,27.4,14.6s22.7-8.6,27.4-14.6l51.5,15.5c10.2,3.1,17.1,12.3,17.1,23V256H496z M112,16c22.1,0,40,17.9,40,40h-36.7
	c-5.1,0-10.1-2.1-13.7-5.7L96,44.7l-5.7,5.7c-3.6,3.6-8.6,5.7-13.7,5.7H72C72,33.9,89.9,16,112,16z M72,80v-8h4.7
	c7,0,13.6-2,19.3-5.7c5.7,3.7,12.3,5.7,19.3,5.7H152v8c0,22.1-17.9,40-40,40S72,102.1,72,80z M112,152c-8.5,0-14-7.1-16-10.2v-8.2
	c5.1,1.5,10.4,2.4,16,2.4s10.9-0.8,16-2.4v8.2C126,144.9,120.5,152,112,152z M331.9,292.4c4.1,10.3,11.1,19.2,20.1,25.5V330
	l-51.5,15.4c-1.7,0.5-3.3,1.2-5,1.9l-7.6-1.7v-15.8c8.6-6.9,15.3-15.9,19.4-26.2C316.6,302.8,325.3,298.9,331.9,292.4z M248,344
	c8.5,0,16.6-1.7,24-4.7v8.7l-24,18l-24-18v-8.7C231.4,342.3,239.5,344,248,344z M214.2,360.6l19.5,14.6l-20.1,12l-5.1-25.4
	L214.2,360.6z M239.2,424h17.7l6.2,56h-30.1L239.2,424z M258.2,408h-20.5l-4.6-13.8l14.8-8.9l14.8,8.9L258.2,408z M262.3,375.3
	l19.5-14.6l5.6,1.3l-5.1,25.4L262.3,375.3z M321.8,280.1c-2.8,3-6.3,5.2-10.1,6.5c0.2-2.2,0.3-4.4,0.3-6.6v-38.3
	c8.6,3.3,15,10.8,15.9,19.9C328.5,268.5,326.4,275.1,321.8,280.1z M296,280c0,26.5-21.5,48-48,48s-48-21.5-48-48v-40h27.2
	c17.4,0,34.4-4.4,49.6-12.7l6.3,12.7H296V280z M184.3,286.6c-3.8-1.3-7.3-3.4-10.1-6.5c-4.6-5.1-6.8-11.6-6.1-18.5
	c0.9-9.1,7.3-16.6,15.9-19.9V280C184,282.2,184.1,284.4,184.3,286.6z M188.6,303.6c4.1,10.3,10.9,19.4,19.4,26.2v15.8l-7.6,1.7
	c-1.6-0.7-3.3-1.4-4.9-1.9L144,330v-12.2c9-6.3,16-15.1,20.1-25.5C170.7,298.9,179.4,302.8,188.6,303.6z M112,208
	c22.1,0,40,17.9,40,40h-4.7c-5.1,0-10.1-2.1-13.7-5.7l-5.7-5.7l-5.7,5.7c-3.6,3.6-8.6,5.7-13.7,5.7H72C72,225.9,89.9,208,112,208z
	 M72,272v-8h36.7c7,0,13.6-2,19.3-5.7c5.7,3.7,12.3,5.7,19.3,5.7h4.7v8c0,22.1-17.9,40-40,40S72,294.1,72,272z M112,328
	c5.6,0,10.9-0.8,16-2.4v8.2c-2,3.1-7.5,10.2-16,10.2s-14-7.1-16-10.2v-8.2C101.1,327.2,106.4,328,112,328z M96,440H64v-56H48v56H16
	v-56.2c0-10.7,6.9-19.9,17.1-23l51.5-15.5c4.7,6,13.7,14.6,27.4,14.6s22.7-8.6,27.4-14.6l30.3,9.1l-22.3,5.1
	c-25.6,5.9-43.4,28.3-43.4,54.6v9.8h16v-9.8c0-18.7,12.8-34.8,31-39l41.9-9.7l9.4,47.2l16.7-10l4.7,14.2l-7,63.1H176v-64h-16v64h-40
	v-16C120,450.8,109.2,440,96,440z M462.9,360.8c10.2,3.1,17.1,12.3,17.1,23V440h-32v-56h-16v56h-32c-13.2,0-24,10.8-24,24v16h-40
	v-64h-16v64h-40.8l-7-63.1l4.7-14.2l16.7,10l9.4-47.2l41.9,9.7c18.3,4.2,31,20.2,31,39v9.8h16v-9.8c0-26.2-17.8-48.7-43.4-54.6
	l-22.3-5.1l30.3-9.1c4.7,6,13.7,14.6,27.4,14.6s22.7-8.6,27.4-14.6L462.9,360.8z M400,333.8c-2,3.1-7.5,10.2-16,10.2
	c-8.5,0-14-7.2-16-10.2v-8.2c5.1,1.5,10.4,2.4,16,2.4s10.9-0.8,16-2.4V333.8z M384,312c-22.1,0-40-17.9-40-40v-8h4.7
	c7,0,13.6-2,19.3-5.7c5.7,3.7,12.3,5.7,19.3,5.7H424v8C424,294.1,406.1,312,384,312z M384,208c22.1,0,40,17.9,40,40h-36.7
	c-5.1,0-10.1-2.1-13.7-5.7l-5.7-5.7l-5.7,5.7c-3.6,3.6-8.6,5.7-13.7,5.7H344C344,225.9,361.9,208,384,208z M328,232.7
	c-7.1-5.4-15.9-8.7-25.4-8.7h-9.7l-9.8-19.7l-7.5,5c-14.4,9.6-31.1,14.7-48.4,14.7h-33.8c-9.5,0-18.3,3.3-25.4,8.7v-11.8
	c0-42.4,34.5-76.8,76.8-76.8c20.5,0,39.8,8,54.3,22.5l8.5,8.5l1.8,0.6c11.1,3.7,18.5,14,18.5,25.7V232.7z M384,16
	c22.1,0,40,17.9,40,40h-4.7c-5.1,0-10.1-2.1-13.7-5.7l-5.7-5.7l-5.7,5.7c-3.6,3.6-8.6,5.7-13.7,5.7H344C344,33.9,361.9,16,384,16z
	 M344,80v-8h36.7c7,0,13.6-2,19.3-5.7c5.7,3.7,12.3,5.7,19.3,5.7h4.7v8c0,22.1-17.9,40-40,40S344,102.1,344,80z M384,152
	c-8.5,0-14-7.2-16-10.2v-8.2c5.1,1.5,10.4,2.4,16,2.4s10.9-0.8,16-2.4v8.2C398,144.9,392.5,152,384,152z"/>
</svg>
