<?xml version="1.0" encoding="utf-8"?>
<!-- Generator: Adobe Illustrator 24.0.1, SVG Export Plug-In . SVG Version: 6.00 Build 0)  -->
<svg version="1.1" id="Layer_3" xmlns="http://www.w3.org/2000/svg" xmlns:xlink="http://www.w3.org/1999/xlink" x="0px" y="0px"
	 viewBox="0 0 512 512" style="enable-background:new 0 0 512 512;" xml:space="preserve">
<style type="text/css">
	.st0{fill:#88B279;}
	.st1{fill:#F9AA3D;}
	.st2{fill:#E34E4B;}
	.st3{fill:#F0F0F0;}
</style>
<path class="st0" d="M500.1,186.7c-1.8-5.8-3.4-11.6-4.9-17.5C473.2,81.2,393.5,16,298.7,16c0,0,0,0,0,0v69.3h-1
	c-5.6,0-10.8-2.1-15.2-5.5c-5.6-4.2-12.9-6.2-20.7-4.8c-10.4,1.9-18.9,10.1-21.1,20.5c-3.6,17.2,9.5,32.4,26.1,32.4
	c6,0,11.5-2,15.9-5.3c4.4-3.3,9.6-5.3,15.1-5.3h1.1v69.3H500.1z"/>
<path class="st0" d="M218.7,208v-69.3h-1c-5.6,0-10.8,2.1-15.2,5.5c-5.6,4.2-12.9,6.2-20.7,4.8c-10.4-1.9-18.9-10.1-21.1-20.5
	C157,111.2,170.1,96,186.7,96c6,0,11.5,2,15.9,5.3c4.4,3.3,9.6,5.3,15.1,5.3h1.1V37.4c-108.3,0-198.9,87.1-202.5,195.6
	c-1.8,53.6,17.2,102.8,49.6,140c29.1,33.4,46.3,75.5,46.3,119.8v3.3h192v-53.3h96c11.8,0,21.3-9.6,21.3-21.3V336H458
	c5.9,0,11.6-2.9,14.5-8c3.3-5.8,2.7-12.5-0.9-17.5l-6.5-9.2c-20.2-28.3-34.9-60-45-93.3H218.7z"/>
<path class="st1" d="M400,96c0-20.6-16.7-37.3-37.3-37.3S325.3,75.4,325.3,96c0,14.9,8.7,27.7,21.3,33.7V144h32v-14.3
	C391.3,123.7,400,110.9,400,96z"/>
<path class="st2" d="M239.6,282.1c0.3,2.6,0.4,5.3,0.4,8c0,2.7-0.2,5.4-0.4,8.1l-16.7,4.2c-1.1,6.3-3.1,12.4-5.9,18l11.1,13.2
	c-2.8,4.6-5.9,9-9.5,13l-15.9-6.5c-4.6,4.4-9.7,8.2-15.4,11.2l1.2,17.2c-4.9,2.1-10,3.7-15.3,4.9l-9.1-14.6
	c-3.1,0.4-6.2,0.7-9.5,0.7s-6.4-0.3-9.5-0.7l-9.1,14.6c-5.3-1.2-10.4-2.8-15.3-4.9l1.2-17.2c-5.7-3-10.8-6.8-15.4-11.2l-15.9,6.5
	c-3.6-4.1-6.7-8.4-9.5-13l11.1-13.2c-2.8-5.6-4.8-11.7-5.9-18.1l-16.7-4.1c-0.3-2.7-0.4-5.3-0.4-8.1c0-2.7,0.2-5.4,0.4-8l16.7-4.2
	c1.1-6.3,3.1-12.4,5.9-18.1l-11.1-13.1c2.8-4.6,5.9-9,9.5-13l15.9,6.5c4.6-4.4,9.7-8.2,15.4-11.3l-1.2-17.1c4.9-2.1,10-3.7,15.3-4.9
	l9.1,14.6c3.1-0.4,6.2-0.7,9.5-0.7s6.4,0.3,9.5,0.7l9.1-14.6c5.3,1.2,10.4,2.8,15.3,4.9l-1.2,17.1c5.7,3,10.8,6.8,15.4,11.3
	l15.9-6.5c3.6,4,6.7,8.4,9.5,13L217,259.8c2.8,5.7,4.8,11.7,5.9,18.1L239.6,282.1z"/>
<circle class="st3" cx="154.7" cy="290.1" r="42.7"/>
<circle cx="261.3" cy="442.7" r="5.3"/>
<circle cx="240" cy="442.7" r="5.3"/>
<circle cx="218.7" cy="442.7" r="5.3"/>
<path d="M382.8,259.8c2.1-2.1,2.1-5.5,0-7.5c-2.1-2.1-5.5-2.1-7.5,0c-18.7,18.7-49.2,18.7-67.9,0c-2.1-2.1-5.5-2.1-7.5,0
	c-2.1,2.1-2.1,5.5,0,7.5c11.4,11.4,26.5,17.2,41.5,17.2C356.4,276.9,371.4,271.2,382.8,259.8z"/>
<path d="M505.2,185.1c-1.9-6.4-3.5-12-4.8-17.2C477.2,75.3,394.2,10.7,298.7,10.7c-1.4,0-2.8,0.6-3.8,1.6s-1.6,2.4-1.6,3.8v63.4
	c-3.2-0.8-5.9-2.4-7.8-3.8c-7.2-5.3-16-7.3-24.8-5.7c-12.6,2.3-22.8,12.2-25.3,24.7c-2,9.6,0.4,19.5,6.5,27
	c6.1,7.5,15.2,11.8,24.8,11.8c6.9,0,13.5-2.2,19.1-6.4c2.4-1.8,4.9-3.1,7.6-3.7v63.5c0,2.9,2.4,5.3,5.3,5.3h201.5
	c1.7,0,3.3-0.8,4.3-2.2C505.4,188.5,505.7,186.7,505.2,185.1L505.2,185.1z M304,181.3v-64c0-2.9-2.4-5.3-5.3-5.3h-1.1
	c-6.4,0-12.7,2.2-18.3,6.4c-3.7,2.8-8.1,4.3-12.7,4.3c-6.4,0-12.5-2.9-16.6-7.9c-4.1-5.1-5.7-11.5-4.3-18.1
	c1.7-8.2,8.5-14.8,16.8-16.3c5.9-1.1,11.8,0.3,16.6,3.8c5.7,4.3,12.1,6.5,18.4,6.5h1c2.9,0,5.3-2.4,5.3-5.3V21.4
	c88.4,2.4,164.5,63,186.1,149.1c0.9,3.4,1.8,7,2.9,10.9H304z"/>
<path d="M469.4,298.2c-18.9-26.5-33.8-57.4-44.2-91.7c-0.7-2.3-2.8-3.8-5.1-3.8H277.3c-2.9,0-5.3,2.4-5.3,5.3s2.4,5.3,5.3,5.3h138.9
	c10.7,33.9,25.7,64.6,44.6,91l6.6,9.2c2.5,3.5,2.7,8,0.5,11.8c-1.9,3.3-5.6,5.3-9.9,5.3h-36.6c-2.9,0-5.3,2.4-5.3,5.3v37.3h-37.3
	c-8.8,0-16-7.2-16-16V352c0-2.9-2.4-5.3-5.3-5.3s-5.3,2.4-5.3,5.3v5.3c0,14.7,12,26.7,26.7,26.7H416v37.3c0,8.8-7.2,16-16,16H282.7
	c-2.9,0-5.3,2.4-5.3,5.3s2.4,5.3,5.3,5.3h16v42.7H117.3c-0.5-43.5-17.4-86.5-47.6-121.2c-32.8-37.7-50-86.2-48.3-136.3
	C25,129.9,110.5,45.6,213.3,42.8v58c-2.6-0.7-5.2-1.9-7.6-3.7c-5.6-4.2-12.2-6.4-19.1-6.4c-9.7,0-18.7,4.3-24.8,11.8
	c-6.1,7.5-8.5,17.3-6.5,27c2.6,12.4,12.8,22.3,25.3,24.7c8.9,1.6,17.7-0.4,24.8-5.7c1.9-1.4,4.6-3,7.8-3.8V208
	c0,2.9,2.4,5.3,5.3,5.3h16c2.9,0,5.3-2.4,5.3-5.3s-2.4-5.3-5.3-5.3H224v-64c0-2.9-2.4-5.3-5.3-5.3h-1c-6.3,0-12.7,2.3-18.4,6.5
	c-4.8,3.5-10.6,4.9-16.6,3.8c-8.4-1.5-15.1-8.1-16.8-16.3c-1.4-6.6,0.2-13,4.3-18.1c4.1-5,10.1-7.9,16.5-7.9c4.6,0,9,1.5,12.7,4.3
	c5.6,4.2,11.9,6.4,18.3,6.4h1.1c2.9,0,5.3-2.4,5.3-5.3V37.4c0-1.4-0.6-2.8-1.6-3.8c-1-1-2.4-1.6-3.8-1.6
	c-110.9,0-204.1,90.1-207.9,200.7C9,285.6,27.1,336.6,61.7,376.4c29,33.3,45,74.6,45,116.3v3.3c0,2.9,2.4,5.3,5.3,5.3h192
	c2.9,0,5.3-2.4,5.3-5.3v-48H400c14.7,0,26.7-12,26.7-26.7v-80H458c8.1,0,15.4-4.1,19.2-10.8c4.2-7.5,3.7-16.3-1.2-23.2L469.4,298.2z
	"/>
<path d="M240.9,278l-13.5-3.3c-1-4.4-2.4-8.7-4.2-12.9l8.9-10.6c1.5-1.7,1.7-4.2,0.5-6.1c-2.9-4.9-6.3-9.6-10.1-13.8
	c-1.5-1.7-3.9-2.3-6-1.4l-12.8,5.2c-3.4-3-7.1-5.7-10.9-8l1-13.8c0.2-2.3-1.1-4.4-3.2-5.3c-5.1-2.2-10.6-4-16.2-5.2
	c-2.2-0.5-4.5,0.5-5.7,2.4l-7.3,11.7c-4.8-0.5-8.7-0.5-13.5,0l-7.3-11.7c-1.2-1.9-3.5-2.9-5.7-2.4c-5.7,1.3-11.1,3-16.2,5.2
	c-2.1,0.9-3.4,3-3.2,5.3l1,13.8c-3.9,2.3-7.5,5-10.9,8l-12.8-5.2c-2.1-0.8-4.5-0.3-6,1.4c-3.8,4.3-7.1,8.9-10.1,13.8
	c-1.2,1.9-1,4.4,0.5,6.1l8.9,10.6c-1.8,4.2-3.2,8.5-4.2,12.9L68.5,278c-2.2,0.5-3.8,2.4-4,4.7c-0.3,3.1-0.4,5.9-0.4,8.5
	c0,2.7,0.1,5.5,0.4,8.5c0.2,2.3,1.8,4.1,4,4.7l13.5,3.3c1,4.4,2.4,8.7,4.2,12.9l-8.9,10.6c-1.5,1.7-1.7,4.2-0.5,6.1
	c2.9,4.9,6.3,9.6,10.1,13.8c1.5,1.7,3.9,2.2,6,1.4l12.8-5.2c3.4,3,7.1,5.7,10.9,8l-1,13.8c-0.2,2.3,1.1,4.4,3.2,5.3
	c5.1,2.2,10.6,4,16.2,5.2c2.2,0.5,4.5-0.5,5.7-2.4l7.3-11.7c4.9,0.5,8.7,0.5,13.5,0l7.3,11.7c1,1.6,2.7,2.5,4.5,2.5
	c0.4,0,0.8,0,1.2-0.1c5.7-1.3,11.1-3,16.2-5.2c2.1-0.9,3.4-3,3.2-5.3l-1-13.8c3.9-2.3,7.5-5,10.9-8l12.8,5.2c2.1,0.8,4.5,0.3,6-1.4
	c3.8-4.2,7.1-8.9,10.1-13.8c1.2-1.9,1-4.4-0.5-6.1l-8.9-10.6c1.8-4.2,3.2-8.5,4.2-12.9l13.5-3.3c2.2-0.5,3.8-2.4,4-4.7
	c0.3-3.1,0.4-5.9,0.4-8.5c0-2.7-0.1-5.5-0.4-8.5C244.7,280.5,243.1,278.6,240.9,278z M234.6,295l-13,3.2c-2,0.5-3.6,2.2-4,4.2
	c-1,5.8-2.8,11.4-5.4,16.7c-0.9,1.9-0.6,4.2,0.7,5.8l8.6,10.2c-1.4,2.1-2.9,4.2-4.5,6.1l-12.3-5c-1.9-0.8-4.2-0.4-5.7,1.1
	c-4.3,4.1-9.1,7.6-14.2,10.4c-1.9,1-3,3-2.8,5.1l1,13.3c-2.3,0.9-4.7,1.6-7.2,2.3l-7.1-11.3c-1-1.6-2.7-2.5-4.5-2.5
	c-0.2,0-0.5,0-0.7,0c-6.8,0.9-10.8,0.9-17.6,0c-2.1-0.3-4.1,0.7-5.3,2.5l-7.1,11.3c-2.5-0.7-4.9-1.4-7.2-2.3l1-13.3
	c0.1-2.1-0.9-4.1-2.8-5.1c-5.1-2.7-9.9-6.2-14.2-10.4c-1.5-1.5-3.8-1.9-5.7-1.1l-12.3,5c-1.6-2-3.1-4-4.5-6.1l8.6-10.2
	c1.4-1.6,1.6-3.9,0.7-5.8c-2.6-5.3-4.4-10.9-5.4-16.7c-0.4-2.1-1.9-3.7-4-4.2l-13-3.2c-0.1-1.3-0.1-2.6-0.1-3.8s0-2.5,0.1-3.8
	l13-3.2c2-0.5,3.6-2.2,4-4.2c1-5.8,2.8-11.4,5.4-16.7c0.9-1.9,0.6-4.2-0.7-5.8l-8.6-10.2c1.4-2.1,2.9-4.2,4.5-6.1l12.3,5
	c1.9,0.8,4.2,0.4,5.7-1.1c4.3-4.1,9.1-7.6,14.2-10.4c1.9-1,3-3,2.8-5.1l-1-13.3c2.3-0.9,4.7-1.6,7.2-2.3l7.1,11.3
	c1.1,1.8,3.2,2.8,5.2,2.5c6.7-0.9,10.9-0.9,17.6,0c2.1,0.3,4.1-0.7,5.3-2.5l7.1-11.3c2.4,0.7,4.8,1.4,7.2,2.3l-1,13.3
	c-0.1,2.1,0.9,4.1,2.8,5.1c5.1,2.7,9.9,6.2,14.2,10.4c1.5,1.5,3.8,1.9,5.7,1.1l12.3-5c1.6,2,3.1,4,4.5,6.1l-8.6,10.2
	c-1.4,1.6-1.6,3.9-0.7,5.8c2.6,5.3,4.4,10.9,5.4,16.7c0.4,2.1,1.9,3.7,4,4.2l13,3.2c0.1,1.3,0.1,2.6,0.1,3.8
	C234.7,292.5,234.6,293.7,234.6,295z"/>
<path d="M154.7,243.2c-26.5,0-48,21.5-48,48c0,14.6,6.6,28.3,18,37.5c2.3,1.8,5.7,1.5,7.5-0.8c1.8-2.3,1.5-5.7-0.8-7.5
	c-8.9-7.1-14-17.8-14-29.1c0-7.2,2.1-13.8,5.6-19.5l26.4,22v40.2c0,2.9,2.4,5.3,5.3,5.3c26.5,0,48-21.5,48-48
	C202.7,264.8,181.1,243.2,154.7,243.2L154.7,243.2z M179.6,263.5l-24.9,20.8l-24.9-20.8c6.6-6,15.3-9.6,24.9-9.6
	S173,257.6,179.6,263.5z M160,328.2v-34.5l26.4-22c3.5,5.7,5.6,12.4,5.6,19.5C192,310,178.1,325.6,160,328.2z"/>
<path d="M80,202.7c0,2.9,2.4,5.3,5.3,5.3c2.9,0,5.3-2.4,5.3-5.3V160c0-2.9-2.4-5.3-5.3-5.3S80,157.1,80,160V202.7z"/>
<path d="M106.7,192c0,2.9,2.4,5.3,5.3,5.3c2.9,0,5.3-2.4,5.3-5.3v-42.7c0-2.9-2.4-5.3-5.3-5.3c-2.9,0-5.3,2.4-5.3,5.3V192z"/>
<path d="M133.3,181.3c0,2.9,2.4,5.3,5.3,5.3s5.3-2.4,5.3-5.3v-42.7c0-2.9-2.4-5.3-5.3-5.3s-5.3,2.4-5.3,5.3V181.3z"/>
<path d="M256,325.3c0,2.9,2.4,5.3,5.3,5.3H304c2.9,0,5.3-2.4,5.3-5.3s-2.4-5.3-5.3-5.3h-42.7C258.4,320,256,322.4,256,325.3z"/>
<path d="M240,352c0,2.9,2.4,5.3,5.3,5.3H288c2.9,0,5.3-2.4,5.3-5.3s-2.4-5.3-5.3-5.3h-42.7C242.4,346.7,240,349.1,240,352z"/>
<path d="M277.3,378.7c0-2.9-2.4-5.3-5.3-5.3h-42.7c-2.9,0-5.3,2.4-5.3,5.3s2.4,5.3,5.3,5.3H272C274.9,384,277.3,381.6,277.3,378.7z"
	/>
<circle cx="138.7" cy="117.3" r="5.3"/>
<circle cx="112" cy="128" r="5.3"/>
<circle cx="85.3" cy="138.7" r="5.3"/>
<circle cx="325.3" cy="325.3" r="5.3"/>
<circle cx="309.3" cy="352" r="5.3"/>
<circle cx="293.3" cy="378.7" r="5.3"/>
<path d="M362.7,53.3C339.1,53.3,320,72.5,320,96c0,15.2,8.3,29.3,21.3,36.9V144c0,2.9,2.4,5.3,5.3,5.3h32c2.9,0,5.3-2.4,5.3-5.3
	v-11.1c13.1-7.6,21.3-21.7,21.3-36.9C405.3,72.5,386.2,53.3,362.7,53.3z M376.4,124.9c-1.9,0.9-3,2.8-3,4.8v9H352v-9
	c0-2.1-1.2-3.9-3-4.8c-11.1-5.3-18.3-16.6-18.3-28.9c0-17.6,14.4-32,32-32c17.6,0,32,14.4,32,32
	C394.7,108.3,387.5,119.6,376.4,124.9L376.4,124.9z"/>
<path d="M378.7,160h-32c-2.9,0-5.3,2.4-5.3,5.3c0,2.9,2.4,5.3,5.3,5.3h32c2.9,0,5.3-2.4,5.3-5.3C384,162.4,381.6,160,378.7,160z"/>
<path d="M369.6,81.6l-6.9,6.9l-6.9-6.9c-2.1-2.1-5.5-2.1-7.5,0c-2.1,2.1-2.1,5.5,0,7.5l9.1,9.1v19.1c0,2.9,2.4,5.3,5.3,5.3
	s5.3-2.4,5.3-5.3V98.2l9.1-9.1c2.1-2.1,2.1-5.5,0-7.5S371.6,79.5,369.6,81.6z"/>
<circle cx="256" cy="208" r="5.3"/>
</svg>
