<?xml version="1.0" encoding="utf-8"?>
<!-- Generator: Adobe Illustrator 24.0.1, SVG Export Plug-In . SVG Version: 6.00 Build 0)  -->
<svg version="1.1" id="Capa_1" xmlns="http://www.w3.org/2000/svg" xmlns:xlink="http://www.w3.org/1999/xlink" x="0px" y="0px"
	 viewBox="0 0 425 425" style="enable-background:new 0 0 425 425;" xml:space="preserve">
<style type="text/css">
	.st0{fill:#EEF1F6;}
</style>
<g>
	<g>
		<g>
			<path class="st0" d="M241.4,282.3c-1.6-1.7-3.6-3-5.7-4.1c-4.5-2.4-9.5-3.8-14.4-5.1v38c8-0.9,17.1-3.8,21.3-11.2l0,0
				c2-3.6,2.4-7.9,1.6-11.9C243.8,285.9,242.9,283.9,241.4,282.3z"/>
		</g>
		<g>
			<path class="st0" d="M242.6,300C242.6,299.9,242.6,299.9,242.6,300L242.6,300C242.6,299.9,242.6,299.9,242.6,300z"/>
		</g>
		<g>
			<path class="st0" d="M184,221.5c-1.4,2-2.2,4.3-2.5,6.7c-0.2,2.4-0.1,5.1,0.8,7.4c0.9,2.2,2.7,3.8,4.6,5.1
				c2.1,1.4,4.5,2.6,6.8,3.5c2,0.8,4.2,1.6,6.7,2.3v-34.4C194.3,213.4,187.7,216.2,184,221.5z"/>
		</g>
		<g>
			<path class="st0" d="M242.8,299.6c-0.1,0.1-0.1,0.2-0.2,0.3l0,0C242.7,299.8,242.8,299.7,242.8,299.6z"/>
		</g>
		<g>
			<path class="st0" d="M243,299.3C243,299.2,243,299.2,243,299.3L243,299.3z"/>
		</g>
		<g>
			<path class="st0" d="M234.8,92.5c32.3-27.2,53.9-88.3,40.6-91c-17.7-3.6-56,12-74.6,14.8c-26.3,3.2-54.9-28.5-71-10.9
				c-13.1,14.4,9.4,66.6,44.5,89.3c-104.8,51.5-252,309.9,4.9,328.7C534.6,449.4,356.6,142.6,234.8,92.5z M265.3,296.3
				c-1.1,10.1-6.4,19.2-14.4,25.4c-8.4,6.5-19,9.6-29.5,10.4v11.1c0,3-1.3,5.9-3.5,7.8c-3.1,2.7-7.6,3.4-11.3,1.7
				c-3.7-1.7-6.1-5.5-6.1-9.5v-12.2c-1.8-0.3-3.6-0.7-5.4-1.2c-9.8-2.7-18.9-8-25.6-15.7c-3.3-3.9-6-8.3-7.9-13
				c-0.5-1.2-0.9-2.5-1.3-3.8c-0.3-1.2-0.7-2.3-0.8-3.5c-0.2-2,0.2-4.1,1.1-5.9c1.9-3.7,6-5.9,10.2-5.6c4.1,0.4,7.7,3.2,9,7.1
				c0.4,1.2,0.7,2.4,1.1,3.6c0.4,1.2,1,2.3,1.6,3.4c1.2,2.2,2.8,4.1,4.6,5.9c3.7,3.6,8.4,5.9,13.3,7.2v-41.4
				c-9.6-2.5-19.5-5.7-27.4-11.8c-3.8-3-7.1-6.7-9.3-11.1c-2.3-4.6-3.2-9.8-3.2-15c0-5.2,1-10.4,3.1-15.2c2-4.5,5-8.5,8.6-11.8
				c7.7-7.1,17.9-11,28.2-12.5V190v-10.6c0-3,1.3-5.9,3.5-7.8c3.1-2.7,7.6-3.4,11.3-1.7c3.7,1.7,6.1,5.5,6.1,9.5V190v0.8
				c1.4,0.2,2.7,0.4,4.1,0.6c10.1,1.8,19.9,6,27.3,13.2c3.5,3.4,6.3,7.5,8.4,12c0.6,1.2,1.1,2.5,1.5,3.8c0.4,1.2,0.8,2.5,1,3.7
				c0.3,2,0,4.1-0.9,6c-1.8,3.8-5.7,6.2-9.9,6c-4.1-0.2-7.8-2.9-9.3-6.7c-0.4-1.1-0.7-2.4-1.1-3.5c-0.5-1.2-1-2.3-1.7-3.3
				c-1.3-2-3-3.8-4.9-5.2c-4.2-3.1-9.3-4.7-14.4-5.6v39.6c6,1.4,12.1,3,17.9,5.3c8.7,3.4,17,8.7,21.8,17.1c-0.7-1.3-1.5-2.6,0,0
				c1.5,2.6,0.8,1.3,0,0.1C264.9,280.7,266.1,288.7,265.3,296.3z"/>
		</g>
		<g>
			<path class="st0" d="M242.5,300.2c-0.1,0.1-0.1,0.2-0.2,0.3C242.4,300.4,242.4,300.3,242.5,300.2z"/>
		</g>
	</g>
</g>
</svg>
