<svg height="512" viewBox="0 0 64 64" width="512" xmlns="http://www.w3.org/2000/svg"><g id="Fill_Outline" data-name="Fill Outline"><g id="Colors"><g><path d="m3 22h6v8h-6z" fill="#f9e109"/><path d="m3 9v4h4a2 2 0 0 1 2 2v40h4v-40a6 6 0 0 0 -6-6z" fill="#d0d8da"/><path d="m13 19h48a0 0 0 0 1 0 0v24a4 4 0 0 1 -4 4h-44a0 0 0 0 1 0 0v-28a0 0 0 0 1 0 0z" fill="#d0d8da"/><path d="m25 19v19.738a8 8 0 0 1 -6-7.738v-12h-6v28h44a4 4 0 0 0 4-4v-24z" fill="#93999a"/><g><path d="m17 24h4v4h-4z" fill="#f9e109"/><path d="m17 32h4v10h-4z" fill="#f9e109"/><g fill="#fcbc04"><path d="m17 24h2v4h-2z"/><path d="m17 42h4v-5.721a7.958 7.958 0 0 1 -1.931-4.279h-2.069z"/></g></g><path d="m19 47h16v4h-16z" fill="#f9e109"/><path d="m39 47h12v4h-12z" fill="#f9e109"/><path d="m5 42h4v6h-4z" fill="#f9e109"/><g fill="#fcbc04"><path d="m39 47v2h8a2 2 0 0 1 2 2h2v-4z"/><path d="m19 47v2h12a2 2 0 0 1 2 2h2v-4z"/><path d="m7 42v2a2 2 0 0 1 -2 2v2h4v-6z"/><path d="m7 22v3a3 3 0 0 1 -3 3h-1v2h6v-8z"/></g><path d="m11 47v-32a4 4 0 0 0 -4-4 2 2 0 0 1 -2-2h-2v4h4a2 2 0 0 1 2 2v40h4v-6a2 2 0 0 1 -2-2z" fill="#93999a"/><g><rect fill="#57b7eb" height="22" rx="3" width="32" x="29" y="13"/><path d="m52 29a16 16 0 0 1 -16-16h-4a3 3 0 0 0 -3 3v16a3 3 0 0 0 3 3h26a3 3 0 0 0 3-3v-3z" fill="#4891d3"/><g fill="#c4f236"><path d="m35 35h4v4h-4z"/><path d="m43 35h4v4h-4z"/><path d="m51 35h4v4h-4z"/></g><path d="m34 21h6v6h-6z" fill="#f9e109"/><path d="m38.158 21h-4.158v6h6v-3.441a16.007 16.007 0 0 1 -1.842-2.559z" fill="#fcbc04"/><path d="m48 31-8-4v-6l8-4z" fill="#f9e109"/><path d="m55 36v-1h-4v4h1a3 3 0 0 1 3-3z" fill="#a1d51c"/><path d="m47 36v-1h-4v4h1a3 3 0 0 1 3-3z" fill="#a1d51c"/><path d="m39 36v-1h-4v4h1a3 3 0 0 1 3-3z" fill="#a1d51c"/><path d="m46.422 27.211a8 8 0 0 1 -4.422-7.155v-.056l-2 1v6l8 4v-3z" fill="#fcbc04"/><path d="m36 21h-2v6h6v-3h-1a3 3 0 0 1 -3-3z" fill="#e59730"/><path d="m40 23.559v3.441l8 4v-2.524a15.977 15.977 0 0 1 -8-4.917z" fill="#e59730"/></g></g></g><g id="Outline_copy" data-name="Outline copy"><g fill="#1f2d51"><path d="m22 24a1 1 0 0 0 -1-1h-4a1 1 0 0 0 -1 1v4a1 1 0 0 0 1 1h4a1 1 0 0 0 1-1zm-2 3h-2v-2h2z"/><path d="m21 43a1 1 0 0 0 1-1v-10a1 1 0 0 0 -1-1h-4a1 1 0 0 0 -1 1v10a1 1 0 0 0 2 0v-9h2v9a1 1 0 0 0 1 1z"/><path d="m26 29a1 1 0 0 0 -2 0v7a1 1 0 0 0 2 0z"/><path d="m25 39a1 1 0 0 0 -1 1v2a1 1 0 0 0 2 0v-2a1 1 0 0 0 -1-1z"/><circle cx="25" cy="25" r="1"/><path d="m47.553 16.105-7.789 3.895h-5.764a1 1 0 0 0 -1 1v6a1 1 0 0 0 1 1h5.764l7.789 3.9a1 1 0 0 0 1.447-.9v-14a1 1 0 0 0 -1.447-.895zm-12.553 5.895h4v4h-4zm12 7.382-6-3v-4.764l6-3z"/><path d="m51.414 26.828a1 1 0 0 0 1.414 0 4 4 0 0 0 0-5.656 1 1 0 1 0 -1.414 1.414 2 2 0 0 1 0 2.828 1 1 0 0 0 0 1.414z"/><path d="m54.243 29.657a1 1 0 0 0 1.414 0 8.012 8.012 0 0 0 0-11.314 1 1 0 0 0 -1.414 1.414 6.008 6.008 0 0 1 0 8.486 1 1 0 0 0 0 1.414z"/><path d="m58 12h-6a1 1 0 0 0 0 2h6a2 2 0 0 1 2 2v16a2 2 0 0 1 -2 2h-26a2 2 0 0 1 -2-2v-5a1 1 0 0 0 -2 0v5a4 4 0 0 0 4 4h2v3a1 1 0 0 0 1 1h4a1 1 0 0 0 1-1v-3h6v2h-3a1 1 0 0 0 0 2h4a1 1 0 0 0 1-1v-3h2v3a1 1 0 0 0 1 1h4a1 1 0 0 0 1-1v-3h2a3.959 3.959 0 0 0 2-.556v7.556a3 3 0 0 1 -3 3h-43v-6a1 1 0 0 0 -2 0v14h-2v-39a3 3 0 0 0 -3-3h-3v-2h3a5.006 5.006 0 0 1 5 5v21a1 1 0 0 0 2 0v-16h11a1 1 0 0 0 0-2h-11v-3a7.009 7.009 0 0 0 -7-7h-4a1 1 0 0 0 -1 1v4a1 1 0 0 0 1 1h4a1 1 0 0 1 1 1v2h-3a1 1 0 0 0 0 2h3v2h-5a1 1 0 0 0 -1 1v8a1 1 0 0 0 1 1h5v2h-3a1 1 0 0 0 0 2h3v2h-2a1 1 0 0 0 0 2h2v2h-3a1 1 0 0 0 -1 1v6a1 1 0 0 0 1 1h3v2h-2a1 1 0 0 0 0 2h2v2a1 1 0 0 0 1 1h4a1 1 0 0 0 1-1v-7h4v3a1 1 0 0 0 1 1h16a1 1 0 0 0 1-1v-3h2v3a1 1 0 0 0 1 1h12a1 1 0 0 0 1-1v-3h5a5.006 5.006 0 0 0 5-5v-27a4 4 0 0 0 -4-4zm-20 26h-2v-2h2zm16 0h-2v-2h2zm-50-9v-6h4v6zm2 18v-4h2v4zm40 1v2h-2v-2zm-18 0h2v2h-2zm-2 2h-2v-2h2zm-6-2h2v2h-2zm14 2h-2v-2h2zm6-2h2v2h-2zm10 2h-2v-2h2z"/><path d="m29 24a1 1 0 0 0 1-1v-7a2 2 0 0 1 2-2h16a1 1 0 0 0 0-2h-16a4 4 0 0 0 -4 4v7a1 1 0 0 0 1 1z"/><path d="m55 44a1 1 0 0 0 0-2h-20a1 1 0 0 0 0 2z"/><path d="m31 43v-4a1 1 0 0 0 -2 0v4a1 1 0 0 0 2 0z"/></g></g></g></svg>