<?xml version="1.0" encoding="utf-8"?>
<!-- Generator: Adobe Illustrator 24.0.1, SVG Export Plug-In . SVG Version: 6.00 Build 0)  -->
<svg version="1.1" id="Ebene_1" xmlns="http://www.w3.org/2000/svg" xmlns:xlink="http://www.w3.org/1999/xlink" x="0px" y="0px"
	 viewBox="0 0 512 512" style="enable-background:new 0 0 512 512;" xml:space="preserve">
<style type="text/css">
	.st0{fill:#F4C48C;}
	.st1{fill:#D0D8DA;}
	.st2{fill:#93999A;}
	.st3{fill:#EDA351;}
	.st4{fill:#ABCE9D;}
	.st5{fill:#88B279;}
	.st6{fill:#F9E109;}
	.st7{fill:#1F2D51;}
</style>
<g id="Fill_Outline">
	<g id="Colors">
		<g>
			<path class="st0" d="M24,176h48v64H24V176z"/>
			<path class="st1" d="M24,72v32h32c8.8,0,16,7.2,16,16v320h32V120c0-26.5-21.5-48-48-48H24z"/>
			<path class="st1" d="M104,152h384l0,0v192c0,17.7-14.3,32-32,32H104l0,0V152L104,152z"/>
			<path class="st2" d="M200,152v157.9c-28.2-7.3-48-32.7-48-61.9v-96h-48v224h352c17.7,0,32-14.3,32-32V152H200z"/>
			<g>
				<path class="st0" d="M136,192h32v32h-32V192z"/>
				<path class="st0" d="M136,256h32v80h-32V256z"/>
				<g>
					<path class="st3" d="M136,192h16v32h-16V192z"/>
					<path class="st3" d="M136,336h32v-45.8c-8.5-9.6-13.9-21.5-15.4-34.2H136V336z"/>
				</g>
			</g>
			<path class="st0" d="M152,376h128v32H152V376z"/>
			<path class="st0" d="M312,376h96v32h-96V376z"/>
			<path class="st0" d="M40,336h32v48H40V336z"/>
			<g>
				<path class="st3" d="M312,376v16h64c8.8,0,16,7.2,16,16h16v-32H312z"/>
				<path class="st3" d="M152,376v16h96c8.8,0,16,7.2,16,16h16v-32H152z"/>
				<path class="st3" d="M56,336v16c0,8.8-7.2,16-16,16v16h32v-48H56z"/>
				<path class="st3" d="M56,176v24c0,13.3-10.7,24-24,24h-8v16h48v-64H56z"/>
			</g>
			<path class="st2" d="M88,376V120c0-17.7-14.3-32-32-32c-8.8,0-16-7.2-16-16H24v32h32c8.8,0,16,7.2,16,16v320h32v-48
				C95.2,392,88,384.8,88,376z"/>
			<g>
				<path class="st4" d="M256,104h208c13.3,0,24,10.7,24,24v128c0,13.3-10.7,24-24,24H256c-13.3,0-24-10.7-24-24V128
					C232,114.7,242.7,104,256,104z"/>
				<path class="st5" d="M416,232c-70.7,0-128-57.3-128-128h-32c-13.3,0-24,10.7-24,24v128c0,13.3,10.7,24,24,24h208
					c13.3,0,24-10.7,24-24v-24H416z"/>
				<g>
					<path class="st4" d="M280,280h32v32h-32V280z"/>
					<path class="st4" d="M344,280h32v32h-32V280z"/>
					<path class="st4" d="M408,280h32v32h-32V280z"/>
				</g>
				<path class="st6" d="M272,168h48v48h-48V168z"/>
				<path class="st0" d="M305.3,168H272v48h48v-27.5C314.4,182.1,309.5,175.3,305.3,168z"/>
				<path class="st3" d="M384,248l-64-32v-48l64-32V248z"/>
				<path class="st5" d="M440,288v-8h-32v32h8C416,298.7,426.7,288,440,288z"/>
				<path class="st5" d="M376,288v-8h-32v32h8C352,298.7,362.7,288,376,288z"/>
				<path class="st5" d="M312,288v-8h-32v32h8C288,298.7,298.7,288,312,288z"/>
				<path class="st0" d="M371.4,217.7c-21.7-10.8-35.4-33-35.4-57.2V160l-16,8v48l64,32v-24L371.4,217.7z"/>
				<path class="st0" d="M288,168h-16v48h48v-24h-8C298.7,192,288,181.3,288,168z"/>
				<path class="st0" d="M320,188.5V216l64,32v-20.2C359.2,221.4,336.9,207.7,320,188.5z"/>
			</g>
		</g>
	</g>
	<g id="Outline_copy">
		<g>
			<path class="st7" d="M176,192c0-4.4-3.6-8-8-8h-32c-4.4,0-8,3.6-8,8v32c0,4.4,3.6,8,8,8h32c4.4,0,8-3.6,8-8V192z M160,216h-16
				v-16h16V216z"/>
			<path class="st7" d="M168,344c4.4,0,8-3.6,8-8v-80c0-4.4-3.6-8-8-8h-32c-4.4,0-8,3.6-8,8v80c0,4.4,3.6,8,8,8s8-3.6,8-8v-72h16v72
				C160,340.4,163.6,344,168,344z"/>
			<path class="st7" d="M208,201.5c0-9.7-3.6-17.5-8-17.5s-8,7.8-8,17.5V324c0,9.7,3.6,17.5,8,17.5s8-7.8,8-17.5V201.5z"/>
			<path class="st7" d="M380.4,128.8L318.1,160H272c-4.4,0-8,3.6-8,8v48c0,4.4,3.6,8,8,8h46.1l62.3,31.2c4,2,8.8,0.4,10.7-3.6
				c0.6-1.1,0.9-2.4,0.8-3.6V136c0-4.4-3.6-8-8-8C382.8,128,381.5,128.3,380.4,128.8z M280,176h32v32h-32V176z M376,235.1l-48-24
				v-38.1l48-24V235.1z"/>
			<path class="st7" d="M411.3,214.6c3.1,3.1,8.2,3.1,11.3,0c12.5-12.5,12.5-32.8,0-45.2c-3.1-3.2-8.1-3.3-11.3-0.2
				c-3.2,3.1-3.3,8.1-0.2,11.3c0.1,0.1,0.1,0.1,0.2,0.2c6.2,6.2,6.2,16.4,0,22.6C408.2,206.4,408.2,211.5,411.3,214.6L411.3,214.6z"
				/>
			<path class="st7" d="M433.9,237.3c3.1,3.1,8.2,3.1,11.3,0c24.9-25,24.9-65.5,0-90.5c-3.2-3.1-8.2-3-11.3,0.2c-3,3.1-3,8,0,11.1
				c18.7,18.8,18.7,49.1,0,67.9C430.8,229.1,430.8,234.1,433.9,237.3L433.9,237.3z"/>
			<path class="st7" d="M464,96h-48c-4.4,0-8,3.6-8,8s3.6,8,8,8h48c8.8,0,16,7.2,16,16v128c0,8.8-7.2,16-16,16H256
				c-8.8,0-16-7.2-16-16v-40c0-4.4-3.6-8-8-8s-8,3.6-8,8v40c0,17.7,14.3,32,32,32h16v24c0,4.4,3.6,8,8,8h32c4.4,0,8-3.6,8-8v-24h48
				v16h-24c-4.4,0-8,3.6-8,8s3.6,8,8,8h32c4.4,0,8-3.6,8-8v-24h16v24c0,4.4,3.6,8,8,8h32c4.4,0,8-3.6,8-8v-24h16
				c5.6,0,11.2-1.6,16-4.4V344c0,13.3-10.7,24-24,24H112v-48c0-4.4-3.6-8-8-8s-8,3.6-8,8v112H80V120c0-13.3-10.7-24-24-24H32V80h24
				c22.1,0,40,17.9,40,40v168c0,4.4,3.6,8,8,8s8-3.6,8-8V160h88c4.4,0,8-3.6,8-8s-3.6-8-8-8h-88v-24c0-30.9-25.1-56-56-56H24
				c-4.4,0-8,3.6-8,8v32c0,4.4,3.6,8,8,8h32c4.4,0,8,3.6,8,8v16H40c-4.4,0-8,3.6-8,8s3.6,8,8,8h24v16H24c-4.4,0-8,3.6-8,8v64
				c0,4.4,3.6,8,8,8h40v16H40c-4.4,0-8,3.6-8,8s3.6,8,8,8h24v16H48c-4.4,0-8,3.6-8,8s3.6,8,8,8h16v16H40c-4.4,0-8,3.6-8,8v48
				c0,4.4,3.6,8,8,8h24v16H48c-4.4,0-8,3.6-8,8s3.6,8,8,8h16v16c0,4.4,3.6,8,8,8h32c4.4,0,8-3.6,8-8v-56h32v24c0,4.4,3.6,8,8,8h128
				c4.4,0,8-3.6,8-8v-24h16v24c0,4.4,3.6,8,8,8h96c4.4,0,8-3.6,8-8v-24h40c22.1,0,40-17.9,40-40V128C496,110.3,481.7,96,464,96z
				 M304,304h-16v-16h16V304z M432,304h-16v-16h16V304z M32,232v-48h32v48H32z M48,376v-32h16v32H48z M368,384v16h-16v-16H368z
				 M224,384h16v16h-16V384z M208,400h-16v-16h16V400z M160,384h16v16h-16V384z M272,400h-16v-16h16V400z M320,384h16v16h-16V384z
				 M400,400h-16v-16h16V400z"/>
			<path class="st7" d="M232,192c4.4,0,8-3.6,8-8v-56c0-8.8,7.2-16,16-16h128c4.4,0,8-3.6,8-8s-3.6-8-8-8H256c-17.7,0-32,14.3-32,32
				v56C224,188.4,227.6,192,232,192z"/>
			<path class="st7" d="M440,352c4.4,0,8-3.6,8-8s-3.6-8-8-8H280c-4.4,0-8,3.6-8,8s3.6,8,8,8H440z"/>
			<path class="st7" d="M248,344v-32c0-4.4-3.6-8-8-8s-8,3.6-8,8v32c0,4.4,3.6,8,8,8S248,348.4,248,344z"/>
		</g>
	</g>
</g>
</svg>
