<?xml version="1.0" encoding="utf-8"?>
<!-- Generator: Adobe Illustrator 25.0.1, SVG Export Plug-In . SVG Version: 6.00 Build 0)  -->
<svg version="1.1" id="Capa_1" xmlns="http://www.w3.org/2000/svg" xmlns:xlink="http://www.w3.org/1999/xlink" x="0px" y="0px"
	 viewBox="0 0 512 512" style="enable-background:new 0 0 512 512;" xml:space="preserve">
<style type="text/css">
	.st0{fill:#D3D3D3;}
</style>
<g>
	<g>
		<path class="st0" d="M391,211c-5.9,0-11.4,1.1-16.6,3.2c-5.2-19.1-22.7-33.2-43.4-33.2c-11.5,0-22,4.3-30,11.5
			c-8-7.1-18.5-11.5-30-11.5c-5.3,0-10.3,0.9-15,2.6V135c0-24.8-20.2-45-45-45s-45,20.2-45,45v132.4c-7.2-7.2-13.2-13.2-13.2-13.2
			c-16.6-16.6-43.6-17.6-61.3-2.2c-17.8,15.4-20.7,42.2-6.5,61c0.2,0.2,0.3,0.4,0.5,0.6l66.7,79.7c7.2,8.7,17.7,14,26.9,18.7
			c6.7,3.4,16.9,8.6,16.9,11.9v43c0,24.8,20.2,45,45,45h120c24.8,0,45-20.2,45-45v-31c0-5.9,5.7-13.1,11.7-20.7
			c8.6-10.7,18.3-22.9,18.3-39.3V256C436,231.2,415.8,211,391,211z M394.2,396.7c-8.6,10.7-18.3,22.9-18.3,39.3v31
			c0,8.3-6.7,15-15,15H241c-8.3,0-15-6.7-15-15v-43c0-21.6-19.2-31.5-33.2-38.6c-7-3.6-14.3-7.3-17.6-11.3l-66.4-79.3
			c-4.5-6.3-3.5-15,2.4-20.1c5.9-5.1,14.9-4.8,20.4,0.7c0,0,36.3,36.3,38.8,38.8c9.4,9.4,25.6,2.7,25.6-10.6V135c0-8.3,6.7-15,15-15
			s15,6.7,15,15v121c0,8.3,6.7,15,15,15s15-6.7,15-15v-30c0-8.3,6.7-15,15-15c8.3,0,15,6.7,15,15v30c0,8.3,6.7,15,15,15
			s15-6.7,15-15v-30c0-8.3,6.7-15,15-15s15,6.7,15,15v30c0,8.3,6.7,15,15,15s15-6.7,15-15c0-8.3,6.7-15,15-15s15,6.7,15,15v120h0
			C406,381.9,400.3,389.1,394.2,396.7z"/>
	</g>
</g>
<g>
	<g>
		<path class="st0" d="M211,0c-8.3,0-15,6.7-15,15v30c0,8.3,6.7,15,15,15s15-6.7,15-15V15C226,6.7,219.3,0,211,0z"/>
	</g>
</g>
<g>
	<g>
		<path class="st0" d="M292.2,23.8c-5.9-5.9-15.4-5.9-21.2,0L249.8,45c-5.9,5.9-5.9,15.4,0,21.2c5.9,5.9,15.4,5.9,21.2,0L292.2,45
			C298,39.1,298,29.6,292.2,23.8z"/>
	</g>
</g>
<g>
	<g>
		<path class="st0" d="M172.2,45L151,23.8c-5.9-5.9-15.4-5.9-21.2,0s-5.9,15.4,0,21.2L151,66.2c5.9,5.9,15.4,5.9,21.2,0
			C178.1,60.4,178.1,50.9,172.2,45z"/>
	</g>
</g>
<g>
	<g>
		<path class="st0" d="M316,90h-30c-8.3,0-15,6.7-15,15s6.7,15,15,15h30c8.3,0,15-6.7,15-15S324.3,90,316,90z"/>
	</g>
</g>
<g>
	<g>
		<path class="st0" d="M136,90h-30c-8.3,0-15,6.7-15,15s6.7,15,15,15h30c8.3,0,15-6.7,15-15S144.3,90,136,90z"/>
	</g>
</g>
</svg>
