<?xml version="1.0" encoding="utf-8"?>
<!-- Generator: Adobe Illustrator 24.0.1, SVG Export Plug-In . SVG Version: 6.00 Build 0)  -->
<svg version="1.1" id="Capa_1" xmlns="http://www.w3.org/2000/svg" xmlns:xlink="http://www.w3.org/1999/xlink" x="0px" y="0px"
	 viewBox="0 0 512 512" style="enable-background:new 0 0 512 512;" xml:space="preserve">
<style type="text/css">
	.st0{fill:#EFC48F;}
	.st1{fill:#F4D7B8;}
	.st2{fill:#A0C191;}
	.st3{fill:#C7D8BF;}
</style>
<g>
	<g>
		<path class="st0" d="M256,274.4H31.5c-13.3,0-24-10.8-24-24V31.5c0-13.3,10.8-24,24-24H256c13.3,0,24,10.8,24,24v218.8
			C280,263.6,269.3,274.4,256,274.4z"/>
		<path class="st1" d="M278.6,256H71.6c-22.1,0-40.1-18-40.1-40.1V9V7.5c-13.3,0-24,10.8-24,24V256c0,13.3,10.8,24,24,24H256
			c13.3,0,24-10.8,24-24H278.6z"/>
		<path class="st2" d="M480.5,504.5H256c-13.3,0-24-10.8-24-24V256c0-13.3,10.8-24,24-24h224.5c13.3,0,24,10.8,24,24v224.5
			C504.5,493.7,493.7,504.5,480.5,504.5z"/>
		<path class="st3" d="M503,480.5H296.1c-22.1,0-40.1-18-40.1-40.1V233.4V232c-13.3,0-24,10.8-24,24v224.5c0,13.3,10.8,24,24,24
			h224.5c13.3,0,24-10.8,24-24L503,480.5L503,480.5z"/>
	</g>
	<g>
		<path d="M207.4,280c0-4.1-3.4-7.5-7.5-7.5H31.5c-9.1,0-16.5-7.4-16.5-16.5V31.5C15,22.4,22.4,15,31.5,15H256
			c9.1,0,16.5,7.4,16.5,16.5v168.3c0,4.1,3.4,7.5,7.5,7.5s7.5-3.4,7.5-7.5V31.5C287.5,14.2,273.4,0,256,0H31.5C14.2,0,0,14.2,0,31.5
			V256c0,17.4,14.2,31.5,31.5,31.5h168.3C204,287.5,207.4,284.2,207.4,280z"/>
		<path d="M480.5,224.5h-64.1c-4.1,0-7.5,3.4-7.5,7.5s3.4,7.5,7.5,7.5h64.1c9.1,0,16.5,7.4,16.5,16.5v224.5
			c0,9.1-7.4,16.5-16.5,16.5H256c-9.1,0-16.5-7.4-16.5-16.5V256c0-9.1,7.4-16.5,16.5-16.5h128.3c4.1,0,7.5-3.4,7.5-7.5
			s-3.4-7.5-7.5-7.5H256c-17.4,0-31.5,14.2-31.5,31.5v224.5c0,17.4,14.2,31.5,31.5,31.5h224.5c17.4,0,31.5-14.2,31.5-31.5V256
			C512,238.6,497.8,224.5,480.5,224.5z"/>
		<path d="M215.9,80.2h-64.6v-8.5c0-4.1-3.4-7.5-7.5-7.5s-7.5,3.4-7.5,7.5v8.5H71.6c-4.1,0-7.5,3.4-7.5,7.5s3.4,7.5,7.5,7.5h110.4
			c-4.3,13.9-15.1,41.9-38.3,69.8c-14.2-17-23.8-34.2-30.1-48.3c-1.7-3.8-6.1-5.5-9.9-3.8c-3.8,1.7-5.5,6.1-3.8,9.9
			c7,15.6,17.7,34.7,33.7,53.5c-11.4,11.8-25.2,23.3-41.8,33.2c-3.6,2.1-4.7,6.7-2.6,10.3c1.4,2.3,3.9,3.6,6.4,3.6
			c1.3,0,2.6-0.3,3.9-1.1c17.6-10.6,32.2-22.7,44.2-35c12.1,12.4,26.7,24.5,44.3,35c1.2,0.7,2.5,1.1,3.9,1.1c2.5,0,5-1.3,6.4-3.6
			c2.1-3.6,1-8.2-2.6-10.3c-16.7-10-30.5-21.4-41.9-33.3c11.8-13.9,20.4-27.5,26.6-38.9c10-18.5,15-34,17.3-42.1h18.2
			c4.1,0,7.5-3.4,7.5-7.5S220.1,80.2,215.9,80.2L215.9,80.2z"/>
		<path d="M378.4,295.3c-1.7-4.1-5.6-6.7-10-6.7c0,0,0,0,0,0c-4.4,0-8.3,2.6-10,6.7c0,0.1,0,0.1-0.1,0.2l-54.2,142.3
			c-1.5,3.9,0.5,8.2,4.3,9.7c0.9,0.3,1.8,0.5,2.7,0.5c3,0,5.9-1.8,7-4.8l11.7-30.6h76.7l11.5,30.6c1.5,3.9,5.8,5.8,9.7,4.4
			c3.9-1.5,5.8-5.8,4.4-9.7l-53.7-142.3C378.5,295.4,378.5,295.3,378.4,295.3L378.4,295.3z M335.6,397.4l32.8-86.2l32.5,86.2H335.6z
			"/>
		<path d="M204.4,410.3l-32.1-24c-3.3-2.5-8-1.8-10.5,1.5s-1.8,8,1.5,10.5l14.1,10.5h-25.6c-26.8,0-48.6-21.8-48.6-48.6v-48.1
			c0-4.1-3.4-7.5-7.5-7.5s-7.5,3.4-7.5,7.5v48.1c0,35.1,28.5,63.6,63.6,63.6h25.6l-14.1,10.5c-3.3,2.5-4,7.2-1.5,10.5
			c1.5,2,3.7,3,6,3c1.6,0,3.1-0.5,4.5-1.5l32.1-24c1.9-1.4,3-3.6,3-6S206.3,411.7,204.4,410.3z"/>
		<path d="M307.6,101.7l32.1,24c1.3,1,2.9,1.5,4.5,1.5c2.3,0,4.5-1,6-3c2.5-3.3,1.8-8-1.5-10.5l-14.1-10.5h25.6
			c26.8,0,48.6,21.8,48.6,48.6v48.1c0,4.1,3.4,7.5,7.5,7.5s7.5-3.4,7.5-7.5v-48.1c0-35.1-28.5-63.6-63.6-63.6h-25.6l14.1-10.5
			c3.3-2.5,4-7.2,1.5-10.5c-2.5-3.3-7.2-4-10.5-1.5l-32.1,24c-1.9,1.4-3,3.6-3,6S305.7,100.3,307.6,101.7L307.6,101.7z"/>
	</g>
</g>
</svg>
